#define fwd_width 49
#define fwd_height 28
static unsigned char fwd_bits[] = {
   0x00, 0x00, 0xe0, 0x00, 0x00, 0x00, 0x00, 0x00, 0x00, 0x8c, 0x03, 0x00,
   0x00, 0x00, 0x00, 0x00, 0x3c, 0x0e, 0x00, 0x00, 0x00, 0x00, 0x00, 0xfc,
   0x38, 0x00, 0x00, 0x00, 0x00, 0x00, 0xfc, 0xe3, 0x00, 0x00, 0x00, 0x00,
   0x00, 0xfc, 0x8f, 0x03, 0x00, 0x00, 0x00, 0x00, 0xfc, 0x3f, 0x06, 0x00,
   0x00, 0x00, 0x00, 0xfc, 0x8f, 0x03, 0x00, 0x00, 0x00, 0x00, 0xfc, 0xe3,
   0x00, 0x00, 0x00, 0x00, 0x00, 0xfc, 0x38, 0x00, 0x00, 0x00, 0x00, 0x00,
   0x3c, 0x0e, 0x00, 0x00, 0x00, 0x00, 0x00, 0x8c, 0x03, 0x00, 0x00, 0x00,
   0x00, 0x00, 0xe0, 0x00, 0x00, 0x00, 0x00, 0x00, 0x00, 0x00, 0x00, 0x00,
   0x00, 0x00, 0x00, 0x00, 0x00, 0x00, 0x00, 0x00, 0x00, 0x00, 0x00, 0x00,
   0x00, 0x00, 0x00, 0x00, 0x00, 0x00, 0x00, 0x00, 0x00, 0x00, 0x00, 0x00,
   0x00, 0x3f, 0x00, 0x06, 0x00, 0x00, 0x00, 0x00, 0x22, 0x00, 0x04, 0x00,
   0x00, 0x00, 0x00, 0xca, 0x9d, 0x07, 0x00, 0x00, 0x00, 0x00, 0x8e, 0x48,
   0x04, 0x00, 0x00, 0x00, 0x00, 0x8a, 0x4a, 0x04, 0x00, 0x00, 0x00, 0x00,
   0x82, 0x4a, 0x04, 0x00, 0x00, 0x00, 0x00, 0x82, 0x4a, 0x06, 0x00, 0x00,
   0x00, 0x00, 0x07, 0x85, 0x0d, 0x00, 0x00, 0x00, 0x00, 0x00, 0x00, 0x00,
   0x00, 0x00, 0x00, 0x00, 0x00, 0x00, 0x00, 0x00, 0x00, 0x00, 0x00, 0x00,
   0x00, 0x00, 0x00, 0x00};
