#define next_width 49
#define next_height 28
static unsigned char next_bits[] = {
   0x00, 0x00, 0x1c, 0x00, 0x00, 0x00, 0x00, 0x00, 0x80, 0x71, 0x00, 0x0c,
   0x00, 0x00, 0x00, 0x80, 0xc7, 0x01, 0x0c, 0x00, 0x00, 0x00, 0x80, 0x1f,
   0x07, 0x0c, 0x00, 0x00, 0x00, 0x80, 0x7f, 0x1c, 0x0c, 0x00, 0x00, 0x00,
   0x80, 0xff, 0x71, 0x0c, 0x00, 0x00, 0x00, 0x80, 0xff, 0xc7, 0x0d, 0x00,
   0x00, 0x00, 0x80, 0xff, 0x71, 0x0c, 0x00, 0x00, 0x00, 0x80, 0x7f, 0x1c,
   0x0c, 0x00, 0x00, 0x00, 0x80, 0x1f, 0x07, 0x0c, 0x00, 0x00, 0x00, 0x80,
   0xc7, 0x01, 0x0c, 0x00, 0x00, 0x00, 0x80, 0x71, 0x00, 0x0c, 0x00, 0x00,
   0x00, 0x00, 0x1c, 0x00, 0x00, 0x00, 0x00, 0x00, 0x00, 0x00, 0x00, 0x00,
   0x00, 0x00, 0x00, 0x00, 0x00, 0x00, 0x00, 0x00, 0x00, 0x00, 0x00, 0x00,
   0x00, 0x00, 0x00, 0x00, 0x00, 0x00, 0x00, 0x00, 0x00, 0x00, 0x00, 0x00,
   0xb8, 0x03, 0x00, 0x00, 0x00, 0x00, 0x00, 0x30, 0x01, 0x00, 0x04, 0x00,
   0x00, 0x00, 0x50, 0x71, 0x66, 0x3e, 0x00, 0x00, 0x00, 0x50, 0x89, 0x24,
   0x04, 0x00, 0x00, 0x00, 0x50, 0xf9, 0x18, 0x04, 0x00, 0x00, 0x00, 0x50,
   0x09, 0x18, 0x04, 0x00, 0x00, 0x00, 0x90, 0x11, 0x24, 0x44, 0x00, 0x00,
   0x00, 0xb8, 0xf1, 0x66, 0x38, 0x00, 0x00, 0x00, 0x00, 0x00, 0x00, 0x00,
   0x00, 0x00, 0x00, 0x00, 0x00, 0x00, 0x00, 0x00, 0x00, 0x00, 0x00, 0x00,
   0x00, 0x00, 0x00, 0x00};
