<?xml version="1.0" encoding="UTF-8" standalone="no"?>
<!-- Created with Inkscape (http://www.inkscape.org/) -->
<svg
   xmlns:dc="http://purl.org/dc/elements/1.1/"
   xmlns:cc="http://creativecommons.org/ns#"
   xmlns:rdf="http://www.w3.org/1999/02/22-rdf-syntax-ns#"
   xmlns:svg="http://www.w3.org/2000/svg"
   xmlns="http://www.w3.org/2000/svg"
   xmlns:sodipodi="http://sodipodi.sourceforge.net/DTD/sodipodi-0.dtd"
   xmlns:inkscape="http://www.inkscape.org/namespaces/inkscape"
   width="210mm"
   height="297mm"
   id="svg2"
   sodipodi:version="0.32"
   inkscape:version="0.46"
   sodipodi:docname="aslogo.svg"
   inkscape:output_extension="org.inkscape.output.svg.inkscape"
   inkscape:export-filename="C:\Users\t\Documents\Visual Studio Projects\AngelScript\logo\aslogo-88x32.png"
   inkscape:export-xdpi="12.897141"
   inkscape:export-ydpi="12.897141">
  <defs
     id="defs4">
    <inkscape:perspective
       sodipodi:type="inkscape:persp3d"
       inkscape:vp_x="0 : 526.18109 : 1"
       inkscape:vp_y="0 : 1000 : 0"
       inkscape:vp_z="744.09448 : 526.18109 : 1"
       inkscape:persp3d-origin="372.04724 : 350.78739 : 1"
       id="perspective10" />
    <inkscape:perspective
       id="perspective2451"
       inkscape:persp3d-origin="372.04724 : 350.78739 : 1"
       inkscape:vp_z="744.09448 : 526.18109 : 1"
       inkscape:vp_y="0 : 1000 : 0"
       inkscape:vp_x="0 : 526.18109 : 1"
       sodipodi:type="inkscape:persp3d" />
  </defs>
  <sodipodi:namedview
     id="base"
     pagecolor="#ffffff"
     bordercolor="#666666"
     borderopacity="1.0"
     inkscape:pageopacity="0.0"
     inkscape:pageshadow="2"
     inkscape:zoom="0.5"
     inkscape:cx="366.00395"
     inkscape:cy="702.50875"
     inkscape:document-units="px"
     inkscape:current-layer="layer1"
     showgrid="false"
     inkscape:window-width="1280"
     inkscape:window-height="750"
     inkscape:window-x="-8"
     inkscape:window-y="-8" />
  <metadata
     id="metadata7">
    <rdf:RDF>
      <cc:Work
         rdf:about="">
        <dc:format>image/svg+xml</dc:format>
        <dc:type
           rdf:resource="http://purl.org/dc/dcmitype/StillImage" />
      </cc:Work>
    </rdf:RDF>
  </metadata>
  <g
     inkscape:label="Camada 1"
     inkscape:groupmode="layer"
     id="layer1">
    <path
       style="fill:#000000"
       d="M 201.10174,536.38535 C 201.10174,534.3701 206.35563,532.72125 212.77706,532.72125 C 221.50407,532.72125 224.45239,531.02492 224.45239,526.00375 C 224.45239,520.91533 221.48738,519.28625 212.2262,519.28625 C 200.40202,519.28625 189.42641,510.76092 189.42641,501.57647 C 189.42641,491.55778 200.06774,484.71232 218.11835,483.11925 C 234.0827,481.71031 236.58849,482.33661 234.59136,487.23656 C 233.29588,490.41503 232.23594,500.30052 232.23594,509.20433 C 232.23594,520.50761 229.88701,527.60458 224.45239,532.72125 C 216.34408,540.3552 201.10174,542.74697 201.10174,536.38535 z M 224.45239,501.34432 C 224.45239,488.82731 223.9311,488.33528 211.83599,489.43602 C 190.79798,491.35061 191.5541,514.40079 212.65492,514.40079 C 223.58318,514.40079 224.45239,513.43882 224.45239,501.34432 z M 564.9827,510.94602 C 564.9827,510.94602 565.46165,485.47538 567.00301,483.35783 C 568.32953,481.53541 582.49569,483.48162 582.49569,483.48162 C 601.90214,485.29784 611.11032,493.26638 607.41749,505.04835 C 603.9986,515.95646 594.2557,521.88861 583.81232,519.42083 C 576.42849,517.67603 574.71214,518.72752 574.71214,524.99585 C 574.71214,529.24482 576.46344,532.72125 578.60392,532.72125 C 580.74439,532.72125 582.49569,534.3701 582.49569,536.38535 C 582.49569,538.4006 578.55527,540.04944 573.7392,540.04944 C 565.39336,540.04944 564.9827,538.68462 564.9827,510.94602 z M 601.22821,500.66044 C 602.39792,489.23854 593.54752,489.25722 588.57994,488.75214 C 576.01188,487.47429 574.71214,489.67663 574.71214,499.13374 C 574.71214,512.18147 577.72247,515.01567 590.13361,513.65299 C 598.13572,512.77439 600.23997,510.31018 601.22821,500.66044 z M 85.176643,514.65705 C 80.219979,509.99037 80.636959,508.46831 88.518144,502.45987 C 93.470831,498.68405 100.6883,496.37406 104.55697,497.32656 C 108.87868,498.39059 111.59091,497.07136 111.59091,493.90525 C 111.59091,490.55707 107.16073,488.71312 98.942644,488.64072 C 88.373696,488.54762 87.42692,487.90853 93.183513,484.75318 C 102.78585,479.48989 115.13414,484.03112 117.17534,493.57647 C 118.11624,497.97647 119.84848,505.89885 121.02476,511.18177 C 123.07092,520.37155 122.46428,520.76982 107.00174,520.3881 C 98.112797,520.16866 88.291505,517.58969 85.176643,514.65705 z M 111.59091,508.90465 C 111.59091,505.24056 107.69914,503.40851 99.915587,503.40851 C 92.132037,503.40851 88.240262,505.24056 88.240262,508.90465 C 88.240262,512.56875 92.132037,514.40079 99.915587,514.40079 C 107.69914,514.40079 111.59091,512.56875 111.59091,508.90465 z M 136.88745,501.75735 C 136.88745,501.75735 137.44169,485.00482 138.65522,483.5535 C 140.34354,481.53434 152.17193,483.00577 152.17193,483.00577 C 167.95423,484.26554 177.75109,492.23327 177.75109,503.80915 C 177.75109,507.28966 178.81411,512.74546 180.11335,515.93316 C 181.77829,520.01809 180.19617,521.72898 174.75374,521.72898 C 167.90397,521.72898 167.75989,517.59395 169.00584,505.24056 C 169.00584,505.24056 169.84897,496.02986 167.69681,493.04529 C 165.88281,490.52966 161.32283,489.41116 158.29221,488.75214 C 154.57285,487.94335 145.60462,488.75214 145.60462,488.75214 L 147.57858,505.24056 C 149.2005,518.78834 148.42317,521.72898 143.22,521.72898 C 138.14565,521.72898 136.88745,517.76086 136.88745,501.75735 z M 257.10088,518.22787 C 240.60856,511.7759 241.08676,490.9749 257.86549,484.96885 C 272.60348,479.69329 293.61701,494.29551 289.34987,500.61345 C 287.31044,503.63304 279.18475,503.15597 268.304,503.15597 C 243.36558,503.15597 251.89642,517.62028 272.46605,514.00888 C 281.86509,512.35869 286.4103,515.71917 284.7749,517.56459 C 283.33847,519.18549 277.38053,519.65983 273.09958,519.80334 C 268.72727,519.94991 261.61921,519.99549 257.10088,518.22787 z M 282.14582,494.18401 C 280.06532,490.14845 272.45169,488.75214 265.08635,488.75214 C 257.721,488.75214 253.21004,491.1586 253.21004,493.17385 C 253.21004,497.71449 259.30845,498.60571 267.99667,498.60571 C 277.53684,498.60571 283.09334,498.16463 282.14582,494.18401 z M 302.28789,518.06488 C 302.28789,516.04963 305.79049,514.40079 310.07144,514.40079 C 316.91153,514.40079 317.85499,511.95806 317.85499,494.24828 C 317.85499,478.77767 316.49876,474.09577 312.01733,474.09577 C 308.80661,474.09577 306.17966,472.44693 306.17966,470.43168 C 306.17966,468.41643 310.55791,466.76759 315.9091,466.76759 C 325.28928,466.76759 325.63854,467.62254 325.63854,490.58419 C 325.63854,511.95806 326.43685,514.40079 333.42209,514.40079 C 337.70304,514.40079 341.20564,516.04963 341.20564,518.06488 C 341.20564,520.08013 332.44915,521.72898 321.74676,521.72898 C 311.04438,521.72898 302.28789,520.08013 302.28789,518.06488 z M 351.58371,519.28625 C 345.93343,513.96653 349.6907,512.43808 365.03198,513.81551 C 377.31606,514.91845 380.66505,514.08266 379.32601,510.24825 C 378.36419,507.49402 373.02439,504.73047 367.45979,504.10703 C 361.89519,503.48359 355.34568,500.70843 352.90532,497.94001 C 346.434,490.59871 364.18632,480.27729 377.76541,483.48603 C 393.68096,487.24689 389.6219,491.93548 372.33984,489.75308 C 354.11886,487.45211 350.63903,494.22969 368.17915,497.85677 C 385.58423,501.45592 390.18147,508.82122 379.44297,515.90272 C 370.36116,521.89172 356.18037,523.61399 351.58371,519.28625 z M 416.11377,519.12656 C 397.97729,515.87077 396.78331,494.21834 414.26561,485.61073 C 429.52566,478.09727 456.31162,489.81274 442.39179,497.91237 C 440.25131,499.15787 438.50002,497.5068 438.50002,494.24334 C 438.50002,489.62733 435.25936,488.5623 423.90586,489.44698 C 410.55306,490.48746 410.06931,495.30725 409.3117,501.57647 C 408.05319,511.99058 411.83565,512.82129 423.07886,514.08398 C 432.1218,515.09956 442.39957,513.80538 442.39681,515.31681 C 442.39405,516.82825 440.72348,517.58203 438.81831,518.06488 C 434.83259,519.07503 434.17517,518.91033 430.06182,519.38245 C 427.13968,519.71785 420.93454,519.99196 416.11377,519.12656 z M 457.95889,518.06488 C 457.95889,516.04963 459.71019,514.40079 461.85067,514.40079 C 463.99114,514.40079 465.74244,508.62985 465.74244,501.57647 C 465.74244,494.52309 463.99114,488.75214 461.85067,488.75214 C 459.71019,488.75214 457.95889,487.1033 457.95889,485.08805 C 457.95889,483.0728 461.46149,481.42396 465.74244,481.42396 C 470.11901,481.42396 473.52599,483.86669 473.52599,487.00457 C 473.52599,491.94751 474.59654,491.92476 482.89505,486.80547 C 489.11306,482.96963 493.11703,482.32506 494.80007,484.88896 C 496.23045,487.06797 494.18194,488.75214 490.10114,488.75214 C 480.29663,488.75214 473.52599,495.78671 473.52599,505.97338 C 473.52599,511.95806 475.78209,514.40079 481.30954,514.40079 C 485.59049,514.40079 489.09309,516.04963 489.09309,518.06488 C 489.09309,520.08013 482.0879,521.72898 473.52599,521.72898 C 464.96409,521.72898 457.95889,520.08013 457.95889,518.06488 z M 512.44374,518.06488 C 512.44374,516.04963 515.94634,514.40079 520.22729,514.40079 C 526.52827,514.40079 528.01084,511.95806 528.01084,501.57647 C 528.01084,492.6198 526.25028,488.75214 522.17318,488.75214 C 518.96246,488.75214 516.33552,487.1033 516.33552,485.08805 C 516.33552,483.0728 520.71376,481.42396 526.06495,481.42396 C 535.00164,481.42396 535.79439,482.76746 535.79439,497.91237 C 535.79439,511.95806 536.94752,514.40079 543.57794,514.40079 C 547.85889,514.40079 551.36149,516.04963 551.36149,518.06488 C 551.36149,520.08013 542.605,521.72898 531.90262,521.72898 C 521.20023,521.72898 512.44374,520.08013 512.44374,518.06488 z M 632.86818,518.45491 C 626.78417,514.82576 625.42447,508.2736 625.28085,476.4145 C 625.24211,467.8199 633.08877,468.03707 633.08877,475.92782 C 633.08877,479.34764 636.76431,481.42396 642.8182,481.42396 C 648.16939,481.42396 652.54764,483.0728 652.54764,485.08805 C 652.54764,487.1033 648.16939,488.75214 642.8182,488.75214 C 634.29335,488.75214 633.08877,490.33992 633.08877,501.57647 C 633.08877,513.90718 633.65051,514.4107 647.68292,514.65832 C 659.39016,514.86491 660.73738,515.53877 654.49353,518.06488 C 644.27719,522.19816 639.27646,522.27747 632.86818,518.45491 z M 528.01084,470.43168 C 528.01084,468.41643 529.76214,466.76759 531.90262,466.76759 C 534.04309,466.76759 535.79439,468.41643 535.79439,470.43168 C 535.79439,472.44693 534.04309,474.09577 531.90262,474.09577 C 529.76214,474.09577 528.01084,472.44693 528.01084,470.43168 z M 337.95864,450.15498 C 279.44923,438.19821 253.50025,409.81909 256.20614,360.74629 C 256.20614,360.74629 257.89966,339.66424 257.16249,338.17226 C 256.28098,336.38816 239.11095,335.578 239.11095,335.578 C 226.34923,334.80605 210.55016,338.97436 197.8842,343.26164 C 182.35026,348.5197 151.26357,351.4387 134.94156,352.18739 C 97.832073,353.88961 80.76971,350.4806 79.266939,348.8077 C 77.464379,346.80107 89.322119,348.17014 115.12196,347.36949 C 150.89803,346.25925 155.74592,345.44383 187.48053,335.46455 C 225.12391,323.62719 280.90957,313.51128 285.37266,317.71326 C 286.87551,319.12819 284.018,327.13247 279.02263,335.50055 C 267.74638,354.39015 267.55557,376.14513 278.48916,396.32291 C 293.46392,423.95861 324.05085,437.45485 371.70775,437.45485 C 400.79073,437.45485 408.88502,436.02508 426.44639,427.78586 C 448.97913,417.21423 461.81291,401.60786 461.83611,384.75061 C 461.85028,374.47663 457.7341,356.72507 449.56698,331.83787 C 447.36809,325.13743 446.57226,318.7107 447.79848,317.55625 C 451.77416,313.81316 521.5243,324.2518 545.00871,332.1045 C 569.54071,340.3075 610.49258,341.74951 646.70998,337.65993 C 646.70998,337.65993 669.43052,334.05813 670.06063,334.96346 C 670.97285,336.27411 652.54764,340.44847 652.54764,340.44847 C 623.83837,346.69759 580.46481,351.07488 553.30738,345.87316 C 529.36689,341.28762 497.0931,335.83537 483.25543,334.03878 C 475.94107,333.08912 475.47188,335.13408 475.47188,367.96377 C 475.47188,395.24164 473.95743,405.08299 468.56281,412.86145 C 454.93615,432.50965 404.51333,455.72085 376.23161,455.3644 C 368.73995,455.26998 351.51711,452.92573 337.95864,450.15498 z M 209.4684,443.27291 C 209.44735,430.30211 226.23936,400.81392 234.34588,400.81392 C 243.88077,400.81392 240.71057,409.73802 226.60218,422.61241 C 219.22266,429.34647 212.47986,439.15076 211.61819,444.39971 C 210.10408,453.62308 209.63752,452.75696 209.4684,443.27291 z M 521.90227,443.23926 C 520.47469,437.88409 513.38427,429.24962 506.14576,424.05155 C 492.23041,414.05874 489.37828,408.14211 498.47659,408.14211 C 510.00765,408.14211 533.83006,444.18972 526.72173,450.88217 C 525.49862,452.03374 523.32985,448.59443 521.90227,443.23926 z M 580.5498,434.78658 C 576.26885,427.3145 564.01988,414.9936 553.32983,407.4068 C 533.35281,393.22895 527.61092,386.15755 536.07569,386.15755 C 549.66016,386.15755 593.47349,433.99927 589.65843,444.66698 C 588.92965,446.70484 584.83076,442.25866 580.5498,434.78658 z M 142.98349,437.08858 C 143.72401,422.38615 187.87097,380.17326 198.88996,383.63138 C 206.27101,385.94779 203.34154,390.63541 190.44263,397.14846 C 173.00317,405.95416 166.49346,411.41511 153.75159,427.92835 C 147.68702,435.78791 142.84138,439.91001 142.98349,437.08858 z M 346.8664,417.46889 C 334.0305,405.38393 333.22315,373.72161 345.37988,359.17099 C 355.62263,346.91126 375.50655,345.96855 386.33082,357.2295 C 396.3161,367.61761 396.61807,402.50344 386.84428,416.54746 C 377.78686,429.56212 360.14302,429.96878 346.8664,417.46889 z M 377.89952,409.71243 C 386.79227,401.33994 385.8173,376.86198 376.23161,367.83709 C 364.9037,357.1719 357.12858,358.81214 350.73649,373.21554 C 343.60612,389.28255 343.60793,389.30875 352.83831,403.56199 C 361.33459,416.68167 368.60268,418.46538 377.89952,409.71243 z M 127.15801,380.53131 C 155.0741,370.70029 167.54384,369.18667 165.16048,375.91842 C 164.30034,378.3479 151.45748,382.33975 136.6208,384.7892 C 99.178236,390.97074 98.447688,390.64203 127.15801,380.53131 z M 568.71445,374.9215 C 563.80116,367.4367 570.69859,366.97939 606.64443,372.40672 C 606.64443,372.40672 642.71443,376.99701 642.8182,377.86846 C 643.0097,379.47671 607.04898,378.34891 607.04898,378.34891 C 584.36842,377.07415 570.26956,377.29052 568.71445,374.9215 z"
       id="path2457"
       sodipodi:nodetypes="cssssssssccssccscssssssccsssccssssssssccsssccscssscssccsccssssssccsssccsssssssssccssssssssccsssssssssccsssssssssssssccsssssssssccssssssssccssscccscsssssssssssssscscsssssccsssccsssccsssccsssccsssccsssccsscccscc" />
  </g>
</svg>
