#define pause_width 22
#define pause_height 22
static unsigned char pause_bits[] = {
   0x00, 0x00, 0x00, 0x00, 0x00, 0x00, 0x00, 0x00, 0x00, 0x00, 0x00, 0x00,
   0x00, 0x00, 0x00, 0x00, 0x00, 0x00, 0x80, 0xe3, 0x00, 0x80, 0xe3, 0x00,
   0x80, 0xe3, 0x00, 0x80, 0xe3, 0x00, 0x80, 0xe3, 0x00, 0x80, 0xe3, 0x00,
   0x80, 0xe3, 0x00, 0x80, 0xe3, 0x00, 0x80, 0xe3, 0x00, 0x80, 0xe3, 0x00,
   0x00, 0x00, 0x00, 0x00, 0x00, 0x00, 0x00, 0x00, 0x00, 0x00, 0x00, 0x00,
   0x00, 0x00, 0x00, 0x00, 0x00, 0x00};
