#define prev_width 22
#define prev_height 22
static unsigned char prev_bits[] = {
   0x00, 0x00, 0x00, 0x00, 0x00, 0x00, 0x00, 0x00, 0x00, 0x00, 0x00, 0x00,
   0x00, 0x00, 0x00, 0x00, 0x00, 0x00, 0x00, 0x08, 0x02, 0x30, 0x0c, 0x03,
   0x30, 0x8e, 0x03, 0x30, 0xcf, 0x03, 0xb0, 0xef, 0x03, 0xb0, 0xef, 0x03,
   0x30, 0xcf, 0x03, 0x30, 0x8e, 0x03, 0x30, 0x0c, 0x03, 0x00, 0x08, 0x02,
   0x00, 0x00, 0x00, 0x00, 0x00, 0x00, 0x00, 0x00, 0x00, 0x00, 0x00, 0x00,
   0x00, 0x00, 0x00, 0x00, 0x00, 0x00};
