#define repeat2_width 22
#define repeat2_height 22
static unsigned char repeat2_bits[] = {
  0x00, 0x00, 0x00, 0x00, 0x00, 0x00, 0x00, 0x00, 0x02, 0x00, 0x0e, 0x06,
  0xc0, 0x3f, 0x06, 0xf0, 0xff, 0x07, 0x10, 0xf8, 0x07, 0x08, 0xc0, 0x07,
  0x04, 0xe0, 0x07, 0x00, 0xf0, 0x0f, 0x00, 0x00, 0x0c, 0x0c, 0x00, 0x00,
  0xfc, 0x03, 0x00, 0xf8, 0x01, 0x08, 0xf8, 0x00, 0x04, 0xf8, 0x07, 0x02,
  0xf8, 0xff, 0x03, 0x18, 0xff, 0x00, 0x18, 0x1c, 0x00, 0x10, 0x00, 0x00,
  0x00, 0x00, 0x00, 0x00, 0x00, 0x00, };
