#define back_width 22
#define back_height 22
static unsigned char back_bits[] = {
   0x00, 0x00, 0x00, 0x00, 0x00, 0x00, 0x00, 0x00, 0x00, 0x00, 0x00, 0x00,
   0x00, 0x00, 0x00, 0x00, 0x00, 0x00, 0x00, 0x82, 0x00, 0x00, 0xc3, 0x00,
   0x80, 0xe3, 0x00, 0xc0, 0xf3, 0x00, 0xe0, 0xfb, 0x00, 0xe0, 0xfb, 0x00,
   0xc0, 0xf3, 0x00, 0x80, 0xe3, 0x00, 0x00, 0xc3, 0x00, 0x00, 0x82, 0x00,
   0x00, 0x00, 0x00, 0x00, 0x00, 0x00, 0x00, 0x00, 0x00, 0x00, 0x00, 0x00,
   0x00, 0x00, 0x00, 0x00, 0x00, 0x00};
