#define fwrd_width 22
#define fwrd_height 22
static unsigned char fwrd_bits[] = {
   0x00, 0x00, 0x00, 0x00, 0x00, 0x00, 0x00, 0x00, 0x00, 0x00, 0x00, 0x00,
   0x00, 0x00, 0x00, 0x00, 0x00, 0x00, 0x40, 0x10, 0x00, 0xc0, 0x30, 0x00,
   0xc0, 0x71, 0x00, 0xc0, 0xf3, 0x00, 0xc0, 0xf7, 0x01, 0xc0, 0xf7, 0x01,
   0xc0, 0xf3, 0x00, 0xc0, 0x71, 0x00, 0xc0, 0x30, 0x00, 0x40, 0x10, 0x00,
   0x00, 0x00, 0x00, 0x00, 0x00, 0x00, 0x00, 0x00, 0x00, 0x00, 0x00, 0x00,
   0x00, 0x00, 0x00, 0x00, 0x00, 0x00};
