#define play_width 22
#define play_height 22
static unsigned char play_bits[] = {
   0x00, 0x00, 0x00, 0x00, 0x00, 0x00, 0x00, 0x00, 0x00, 0x00, 0x00, 0x00,
   0x00, 0x00, 0x00, 0x00, 0x00, 0x00, 0xc0, 0x00, 0x00, 0xc0, 0x03, 0x00,
   0xc0, 0x0f, 0x00, 0xc0, 0x3f, 0x00, 0xc0, 0xff, 0x00, 0xc0, 0xff, 0x00,
   0xc0, 0x3f, 0x00, 0xc0, 0x0f, 0x00, 0xc0, 0x03, 0x00, 0xc0, 0x00, 0x00,
   0x00, 0x00, 0x00, 0x00, 0x00, 0x00, 0x00, 0x00, 0x00, 0x00, 0x00, 0x00,
   0x00, 0x00, 0x00, 0x00, 0x00, 0x00};
