#define stop_width 22
#define stop_height 22
static unsigned char stop_bits[] = {
   0x00, 0x00, 0x00, 0x00, 0x00, 0x00, 0x00, 0x00, 0x00, 0x00, 0x00, 0x00,
   0x00, 0x00, 0x00, 0x00, 0x00, 0x00, 0x00, 0x00, 0x00, 0x80, 0x7f, 0x00,
   0x80, 0x7f, 0x00, 0x80, 0x7f, 0x00, 0x80, 0x7f, 0x00, 0x80, 0x7f, 0x00,
   0x80, 0x7f, 0x00, 0x80, 0x7f, 0x00, 0x80, 0x7f, 0x00, 0x00, 0x00, 0x00,
   0x00, 0x00, 0x00, 0x00, 0x00, 0x00, 0x00, 0x00, 0x00, 0x00, 0x00, 0x00,
   0x00, 0x00, 0x00, 0x00, 0x00, 0x00};
