#define timidity_width 87
#define timidity_height 52
static char timidity_bits[] = {
 0x00,0x00,0x00,0x00,0x00,0x00,0x00,0x00,0x00,0x00,0x00,0x00,0x00,0x00,0x00,
 0x00,0x00,0x00,0x00,0x00,0x00,0x00,0x00,0x00,0x00,0x00,0x00,0x00,0x00,0x00,
 0x00,0x00,0x00,0x00,0x00,0x00,0x00,0x00,0x00,0x00,0x00,0x00,0x00,0x00,0x00,
 0x00,0x00,0x00,0x00,0x00,0x00,0x00,0x00,0x00,0x00,0x00,0x00,0x00,0x00,0x00,
 0x00,0x00,0x00,0x00,0x00,0x00,0x00,0x00,0x00,0x00,0x00,0x00,0x00,0x7e,0x00,
 0x00,0x00,0x00,0x00,0x00,0x00,0x00,0x00,0xf0,0xff,0x00,0x00,0x00,0x00,0x00,
 0x00,0x00,0x00,0x00,0xfe,0xff,0x00,0x00,0x00,0x00,0x00,0x00,0x00,0x00,0x00,
 0xff,0xc1,0x00,0x00,0x00,0x00,0x00,0x00,0x00,0x00,0x80,0x1f,0xc0,0x00,0x00,
 0x00,0x00,0x00,0x00,0x00,0x00,0xc0,0x01,0xc0,0x00,0x00,0x00,0x00,0x00,0x00,
 0x00,0x00,0xc0,0x00,0xc0,0x00,0x00,0x00,0xfe,0xff,0x00,0x00,0x00,0xc0,0x00,
 0xc0,0x00,0x00,0x00,0xfe,0xff,0x00,0x00,0x00,0xc0,0x00,0xc0,0x00,0x00,0x00,
 0xfe,0xff,0x00,0x00,0x00,0xc0,0x00,0xc0,0x00,0x00,0x00,0x80,0x03,0x00,0x00,
 0x70,0x80,0x01,0xc0,0x00,0x00,0x00,0xff,0xff,0xff,0xff,0xff,0xff,0xff,0xff,
 0xff,0xff,0x7f,0x80,0x03,0x00,0x00,0x70,0x80,0x01,0xc0,0x01,0x00,0x00,0x80,
 0x03,0x00,0x00,0x00,0x00,0x03,0xf8,0xff,0x00,0x00,0x80,0x03,0x00,0x00,0x00,
 0x00,0x03,0xfc,0xff,0x01,0x00,0x80,0x03,0x00,0x00,0x20,0x00,0x03,0xf0,0xff,
 0x00,0x00,0x80,0x03,0x07,0x00,0x70,0x00,0x03,0x00,0x03,0x00,0x00,0xff,0xff,
 0xff,0xff,0xff,0xff,0xff,0xff,0xff,0xff,0x7f,0x80,0x03,0x07,0x00,0x70,0x00,
 0x03,0x00,0x03,0x00,0x00,0x80,0x03,0x00,0x00,0x70,0x00,0x03,0x00,0x03,0x00,
 0x00,0x80,0x03,0xc0,0x00,0x72,0xf0,0x03,0xe0,0x03,0x00,0x0f,0x80,0x03,0xc2,
 0x01,0x73,0xf8,0x03,0xf0,0x83,0x83,0x07,0x80,0x03,0xc7,0x83,0x73,0xfc,0xe3,
 0xf8,0x87,0x83,0x03,0xff,0xff,0xff,0xff,0xff,0xff,0xff,0xff,0xff,0xff,0x7f,
 0x80,0x03,0xc7,0xef,0x73,0xfc,0xe3,0xf8,0x87,0x83,0x03,0x00,0x00,0xc7,0xfd,
 0x23,0xfc,0x03,0xf8,0x07,0x87,0x03,0x00,0x00,0xc7,0xb9,0x03,0xf8,0x01,0xf0,
 0x03,0xcf,0x03,0x00,0x00,0xc7,0x91,0x03,0xf0,0x40,0xe0,0x01,0xde,0x01,0x00,
 0x00,0xc7,0x81,0x03,0x00,0xe0,0x00,0x00,0xf8,0x01,0xff,0xff,0xff,0xff,0xff,
 0xff,0xff,0xff,0xff,0xff,0x7f,0x00,0x00,0xc2,0x81,0x03,0x00,0xe0,0x00,0x00,
 0xf0,0x00,0x00,0x00,0xc0,0x81,0x03,0x00,0xe0,0x00,0x00,0xf0,0x00,0x00,0x00,
 0xc0,0x81,0x03,0x00,0xe0,0x00,0x00,0x70,0x00,0x00,0x00,0xc0,0x81,0x03,0x00,
 0xe0,0x00,0x00,0x78,0x00,0x00,0x00,0x00,0x00,0x00,0x00,0xe0,0x00,0x00,0x38,
 0x00,0xff,0xff,0xff,0xff,0xff,0xff,0xff,0xff,0xff,0xff,0x7f,0x00,0x00,0x00,
 0x00,0x00,0x00,0x40,0x00,0x06,0x1e,0x00,0x00,0x00,0x00,0x00,0x00,0x00,0x00,
 0x00,0x86,0x1f,0x00,0x00,0x00,0x00,0x00,0x00,0x00,0x00,0x00,0xfe,0x07,0x00,
 0x00,0x00,0x00,0x00,0x00,0x00,0x00,0x00,0xfc,0x01,0x00,0x00,0x00,0x00,0x00,
 0x00,0x00,0x00,0x00,0xf8,0x00,0x00,0x00,0x00,0x00,0x00,0x00,0x00,0x00,0x00,
 0x00,0x00,0x00,0x00,0x00,0x00,0x00,0x00,0x00,0x00,0x00,0x00,0x00,0x00,0x00,
 0x00,0x00,0x00,0x00,0x00,0x00,0x00,0x00,0x00,0x00,0x00,0x00,0x00,0x00,0x00,
 0x00,0x00,0x00,0x00,0x00,0x00,0x00,0x00,0x00,0x00,0x00,0x00,0x00,0x00,0x00,
 0x00,0x00};
