<svg height="1052.362205" width="744.094488" xmlns="http://www.w3.org/2000/svg"><rect fill="#fffe57" height="30" rx="10" stroke="#2b0000" stroke-width="2" width="300" x="120" y="132.36218"/><text font-family="Sans" font-size="14" stroke-width="1pt" x="221.06152" y="151.22449"><tspan x="221.06152" y="151.22449">Main program</tspan></text><rect fill="#bae9ff" height="110" rx="10" stroke="#2b0000" stroke-width="2" width="300" x="120" y="162.36218"/><text font-family="Sans" font-size="14" stroke-width="1pt" x="246.51514" y="182.9989"><tspan x="246.51514" y="182.9989">C-Pluff</tspan></text><g stroke-width="2"><path d="m235 248.36218c52-49 110.5-51.75 110-13" fill="none" stroke="#000"/><path d="m150 242.375c-5.54 0-10 4.46-10 10v70c0 5.54 4.46 10 10 10h80c5.54 0 10-4.46 10-10v-70c0-5.54-4.46-10-10-10h-50v20h-10-10v-20h-10z" fill="#68ff5c" stroke="#2b0000"/><path d="m225 235.36218c47-44 80.75-19.5 97 14" fill="none" stroke="#000"/><path d="m320 242.375c-5.54 0-10 4.46-10 10v70c0 5.54 4.46 10 10 10h70c5.54 0 10-4.46 10-10v-70c0-5.54001-4.46-10-10-10v20h-20v-20h-50z" fill="#a5baff" stroke="#2b0000"/><path d="m200 232.36218h11v30h-11z" fill="#68ff5c" stroke="#2b0000"/><path d="m220 232.36218h10v29h-10z" fill="#a5baff" stroke="#2b0000"/><path d="m194 237.36218c28-52 78.5-14 78 16" fill="none" stroke="#000"/><path d="m190 232.36218h10v30h-10z" fill="#ff9e69" stroke="#2b0000"/><path d="m340 232.36218h10v30h-10z" fill="#68ff5c" stroke="#2b0000"/><path d="m279 248.36218c2-37 56-35 56-12" fill="none" stroke="#000"/><path d="m330 232.36218h10v30h-10z" fill="#ff9e69" stroke="#2b0000"/><path d="m156 234.36218c28-52 120-44 119 10" fill="none" stroke="#000"/><rect fill="#ff9e69" height="90" rx="10" ry="10.000005" stroke="#2b0000" width="30" x="260" y="242.36218"/><path d="m150 232.36218h10v30h-10z" fill="#ff9e69" stroke="#2b0000"/></g><text font-family="Sans" font-size="14" stroke-width="1pt" x="31" y="223.36218"><tspan x="31" y="223.36218">Extension</tspan></text><text font-family="Sans" font-size="14" stroke-width="1pt" x="19" y="314.36218"><tspan x="19" y="314.36218">Extension point</tspan></text><text font-family="Sans" font-size="14" stroke-width="1pt" x="159.38721" y="319.2373"><tspan x="159.38721" y="319.2373">Plug-in A</tspan></text><text font-family="Sans" font-size="14" stroke-width="1pt" x="325" y="320.36218"><tspan x="325" y="320.36218">Plug-in C</tspan></text><text font-family="Sans" font-size="14" stroke-width="1pt" transform="rotate(90)" x="256.17322" y="-271.1377"><tspan x="256.17322" y="-271.1377">Plug-in B</tspan></text><path d="m122 301.36218 44-36" fill="none" stroke="#000"/><path d="m104 223.36218 50 15" fill="none" stroke="#000"/></svg>