#define pause_width 49
#define pause_height 28
static unsigned char pause_bits[] = {
   0x00, 0x00, 0x00, 0x00, 0x00, 0x00, 0x00, 0x00, 0x00, 0x78, 0xf0, 0x00,
   0x00, 0x00, 0x00, 0x00, 0x78, 0xf0, 0x00, 0x00, 0x00, 0x00, 0x00, 0x78,
   0xf0, 0x00, 0x00, 0x00, 0x00, 0x00, 0x78, 0xf0, 0x00, 0x00, 0x00, 0x00,
   0x00, 0x78, 0xf0, 0x00, 0x00, 0x00, 0x00, 0x00, 0x78, 0xf0, 0x00, 0x00,
   0x00, 0x00, 0x00, 0x78, 0xf0, 0x00, 0x00, 0x00, 0x00, 0x00, 0x78, 0xf0,
   0x00, 0x00, 0x00, 0x00, 0x00, 0x78, 0xf0, 0x00, 0x00, 0x00, 0x00, 0x00,
   0x78, 0xf0, 0x00, 0x00, 0x00, 0x00, 0x00, 0x78, 0xf0, 0x00, 0x00, 0x00,
   0x00, 0x00, 0x78, 0xf0, 0x00, 0x00, 0x00, 0x00, 0x00, 0x78, 0xf0, 0x00,
   0x00, 0x00, 0x00, 0x00, 0x00, 0x00, 0x00, 0x00, 0x00, 0x00, 0x00, 0x00,
   0x00, 0x00, 0x00, 0x00, 0x00, 0x00, 0x00, 0x00, 0x00, 0x00, 0x00, 0x00,
   0x1e, 0x00, 0x00, 0x00, 0x00, 0x00, 0x00, 0x24, 0x00, 0x00, 0x00, 0x00,
   0x00, 0x00, 0x24, 0xce, 0x8c, 0xc7, 0x01, 0x00, 0x00, 0x24, 0x90, 0xc8,
   0x24, 0x02, 0x00, 0x00, 0x1c, 0x9e, 0x88, 0xe3, 0x03, 0x00, 0x00, 0x04,
   0x91, 0x08, 0x24, 0x00, 0x00, 0x00, 0x04, 0x99, 0x4c, 0x44, 0x00, 0x00,
   0x00, 0x0e, 0x36, 0xdb, 0xc3, 0x03, 0x00, 0x00, 0x00, 0x00, 0x00, 0x00,
   0x00, 0x00, 0x00, 0x00, 0x00, 0x00, 0x00, 0x00, 0x00, 0x00, 0x00, 0x00,
   0x00, 0x00, 0x00, 0x00};
