#define prev_width 49
#define prev_height 28
static unsigned char prev_bits[] = {
   0x00, 0x00, 0x00, 0xc0, 0x01, 0x00, 0x00, 0x00, 0x80, 0x01, 0x70, 0x0c,
   0x00, 0x00, 0x00, 0x80, 0x01, 0x1c, 0x0f, 0x00, 0x00, 0x00, 0x80, 0x01,
   0xc7, 0x0f, 0x00, 0x00, 0x00, 0x80, 0xc1, 0xf1, 0x0f, 0x00, 0x00, 0x00,
   0x80, 0x71, 0xfc, 0x0f, 0x00, 0x00, 0x00, 0x80, 0x1d, 0xff, 0x0f, 0x00,
   0x00, 0x00, 0x80, 0x71, 0xfc, 0x0f, 0x00, 0x00, 0x00, 0x80, 0xc1, 0xf1,
   0x0f, 0x00, 0x00, 0x00, 0x80, 0x01, 0xc7, 0x0f, 0x00, 0x00, 0x00, 0x80,
   0x01, 0x1c, 0x0f, 0x00, 0x00, 0x00, 0x80, 0x01, 0x70, 0x0c, 0x00, 0x00,
   0x00, 0x00, 0x00, 0xc0, 0x01, 0x00, 0x00, 0x00, 0x00, 0x00, 0x00, 0x00,
   0x00, 0x00, 0x00, 0x00, 0x00, 0x00, 0x00, 0x00, 0x00, 0x00, 0x00, 0x00,
   0x00, 0x00, 0x00, 0x00, 0x00, 0x00, 0x00, 0x00, 0x00, 0x00, 0x00, 0x00,
   0xf0, 0x00, 0x00, 0x00, 0x00, 0x00, 0x00, 0x20, 0x01, 0x00, 0x00, 0x00,
   0x00, 0x00, 0x20, 0xd9, 0x38, 0x77, 0x00, 0x00, 0x00, 0x20, 0xb1, 0x44,
   0x22, 0x00, 0x00, 0x00, 0xe0, 0x10, 0x7c, 0x22, 0x00, 0x00, 0x00, 0x20,
   0x10, 0x04, 0x14, 0x00, 0x00, 0x00, 0x20, 0x10, 0x08, 0x14, 0x00, 0x00,
   0x00, 0x70, 0xf8, 0x78, 0x08, 0x00, 0x00, 0x00, 0x00, 0x00, 0x00, 0x00,
   0x00, 0x00, 0x00, 0x00, 0x00, 0x00, 0x00, 0x00, 0x00, 0x00, 0x00, 0x00,
   0x00, 0x00, 0x00, 0x00};
