#define quit_width 49
#define quit_height 28
static unsigned char quit_bits[] = {
   0x00, 0x00, 0x00, 0x00, 0x00, 0x00, 0x00, 0x00, 0x00, 0xfc, 0x7f, 0x00,
   0x00, 0x00, 0x00, 0x00, 0xfc, 0x7f, 0x00, 0x00, 0x00, 0x00, 0x00, 0xfc,
   0x7f, 0x00, 0x00, 0x00, 0x00, 0x00, 0xfc, 0x7f, 0x00, 0x00, 0x00, 0x00,
   0x00, 0xfc, 0x7f, 0x00, 0x00, 0x00, 0x00, 0x00, 0xfc, 0x7f, 0x00, 0x00,
   0x00, 0x00, 0x00, 0xfc, 0x7f, 0x00, 0x00, 0x00, 0x00, 0x00, 0xfc, 0x7f,
   0x00, 0x00, 0x00, 0x00, 0x00, 0xfc, 0x7f, 0x00, 0x00, 0x00, 0x00, 0x00,
   0xfc, 0x7f, 0x00, 0x00, 0x00, 0x00, 0x00, 0xfc, 0x7f, 0x00, 0x00, 0x00,
   0x00, 0x00, 0xfc, 0x7f, 0x00, 0x00, 0x00, 0x00, 0x00, 0xfc, 0x7f, 0x00,
   0x00, 0x00, 0x00, 0x00, 0x00, 0x00, 0x00, 0x00, 0x00, 0x00, 0x00, 0x00,
   0x00, 0x00, 0x00, 0x00, 0x00, 0x00, 0x00, 0x00, 0x00, 0x00, 0x00, 0x00,
   0x70, 0x00, 0x08, 0x00, 0x00, 0x00, 0x00, 0xd0, 0x00, 0x00, 0x02, 0x00,
   0x00, 0x00, 0x88, 0x66, 0x0e, 0x1f, 0x00, 0x00, 0x00, 0x88, 0x44, 0x08,
   0x02, 0x00, 0x00, 0x00, 0x88, 0x44, 0x08, 0x02, 0x00, 0x00, 0x00, 0x88,
   0x44, 0x08, 0x02, 0x00, 0x00, 0x00, 0x90, 0x64, 0x08, 0x22, 0x00, 0x00,
   0x00, 0x70, 0xd8, 0x3e, 0x1c, 0x00, 0x00, 0x00, 0xe0, 0x00, 0x00, 0x00,
   0x00, 0x00, 0x00, 0x00, 0x00, 0x00, 0x00, 0x00, 0x00, 0x00, 0x00, 0x00,
   0x00, 0x00, 0x00, 0x00};
