#define restart_width 49
#define restart_height 28
static unsigned char restart_bits[] = {
   0x00, 0x00, 0x00, 0x00, 0x00, 0x00, 0x00, 0x00, 0xfe, 0x3f, 0x00, 0x38,
   0x00, 0x00, 0x00, 0xfe, 0x3f, 0x00, 0x0e, 0x00, 0x00, 0x00, 0xfe, 0x3f,
   0x80, 0x03, 0x00, 0x00, 0x00, 0xfe, 0x3f, 0xe0, 0x00, 0x00, 0x00, 0x00,
   0xfe, 0x3f, 0x38, 0x00, 0x00, 0x00, 0x00, 0xfe, 0x3f, 0x0e, 0x00, 0x00,
   0x00, 0x00, 0xfe, 0xbf, 0x03, 0x00, 0x00, 0x00, 0x00, 0xfe, 0x3f, 0x0e,
   0x00, 0x00, 0x00, 0x00, 0xfe, 0x3f, 0x38, 0x00, 0x00, 0x00, 0x00, 0xfe,
   0x3f, 0xe0, 0x00, 0x00, 0x00, 0x00, 0xfe, 0x3f, 0x80, 0x03, 0x00, 0x00,
   0x00, 0xfe, 0x3f, 0x00, 0x0e, 0x00, 0x00, 0x00, 0xfe, 0x3f, 0x00, 0x38,
   0x00, 0x00, 0x00, 0x00, 0x00, 0x00, 0x00, 0x00, 0x00, 0x00, 0x00, 0x00,
   0x00, 0x00, 0x00, 0x00, 0x00, 0x00, 0x00, 0x00, 0x00, 0x00, 0x00, 0x1f,
   0x00, 0x00, 0x00, 0x00, 0x00, 0x00, 0x22, 0x00, 0x80, 0x00, 0x00, 0x10,
   0x00, 0x22, 0x0e, 0xcf, 0xc7, 0xb1, 0xf9, 0x00, 0x22, 0x91, 0x89, 0x00,
   0x62, 0x11, 0x00, 0x1e, 0x1f, 0x87, 0xc0, 0x23, 0x10, 0x00, 0x22, 0x01,
   0x88, 0x20, 0x22, 0x10, 0x00, 0x22, 0x82, 0x88, 0x28, 0x23, 0x10, 0x01,
   0x47, 0x9e, 0x07, 0xc7, 0xf6, 0xe1, 0x00, 0x00, 0x00, 0x00, 0x00, 0x00,
   0x00, 0x00, 0x00, 0x00, 0x00, 0x00, 0x00, 0x00, 0x00, 0x00, 0x00, 0x00,
   0x00, 0x00, 0x00, 0x00};
