<svg xmlns="http://www.w3.org/2000/svg" width="100" height="100" version="1.1" viewBox="0 0 26.458 26.458"><metadata/><g transform="translate(0 -270.54)"><rect width="26.458" height="26.458" x="0" y="270.54" fill="#a4c639" stroke-width=".278"/><path fill="#fff" stroke-width=".772" d="m21.059 281.63c0-0.62897-0.50779-1.1406-1.1391-1.1406-0.63126 0-1.1421 0.50935-1.1421 1.1422v4.7769c0 0.62508 0.51165 1.1421 1.1445 1.1421 0.62818 0 1.1391-0.51705 1.1391-1.1421v-4.7846h-0.0079zm-12.929-0.92221 0.0032 7.4085c0 0.68298 0.54328 1.227 1.2139 1.227h0.82033v2.5312c0 0.63281 0.50933 1.1437 1.1344 1.1437 0.62509 0 1.1321-0.50932 1.1421-1.1328v-2.5312h1.538v2.5312c0 0.63511 0.50933 1.1444 1.1344 1.1444 0.63512 0 1.1437-0.50932 1.1437-1.1499v-2.5312h0.83191c0.67139 0 1.2139-0.54791 1.2139-1.2178v-7.4316l-10.209 6e-3 0.03086 2e-3zm7.4455-2.2611c-0.23923 0-0.43216-0.1928-0.43216-0.43214 0-0.23538 0.19294-0.43063 0.43216-0.43217 0.23923 0 0.43216 0.19688 0.43216 0.43217 0 0.23917-0.19294 0.43214-0.43216 0.43214m-4.6766 0c-0.23923 0-0.43216-0.1928-0.43216-0.43214 0-0.23684 0.19294-0.43063 0.43216-0.43063 0.23923 0 0.43216 0.19688 0.43216 0.43987 0 0.24297-0.19449 0.43757-0.43988 0.43757m4.8541-2.238 0.7941-1.4593c0.04629-0.0811 0.01079-0.17442-0.05866-0.21992-0.08027-0.0347-0.17287-0.0117-0.21916 0.0694l-0.8103 1.4662c-0.66985-0.31253-1.4323-0.48616-2.2303-0.48616-0.79795 0-1.5573 0.16596-2.2318 0.46534l-0.79795-1.4686c-0.04089-0.0755-0.13892-0.10413-0.21452-0.0618-0.07718 0.0347-0.10494 0.13884-0.06175 0.20826l0.79487 1.447c-1.5666 0.80799-2.6238 2.346-2.6238 4.1132h10.285c0-1.7672-1.0557-3.3053-2.6207-4.1132m-9.2127 4.3002c-0.63049 0-1.1421 0.51319-1.1421 1.1445v4.7785c0 0.63281 0.51242 1.1421 1.1452 1.1421 0.62817 0 1.1398-0.50932 1.1398-1.1421v-4.7769c0-0.62897-0.50933-1.1406-1.1344-1.1406"/></g></svg>