<svg xmlns="http://www.w3.org/2000/svg" xmlns:xlink="http://www.w3.org/1999/xlink" width="100" height="100" version="1.1" viewBox="0 0 26.458 26.458"><metadata/><rect width="26.458" height="26.458" x="0" y="0" fill="#294172" stroke-width=".278"/><path id="voice" fill="#fff" stroke-width=".07" d="m22.489 13.23c0-5.1145-4.1461-9.2611-9.2602-9.2611-5.1122 0-9.2567 4.1428-9.2602 9.2541v7.1663c0.00273 1.1606 0.94405 2.1001 2.1054 2.1001h7.1587c5.1128-0.0018 9.2567-4.1468 9.2567-9.2602"/><path id="in" fill="none" stroke="#3c6eb4" stroke-width="2.032" d="m9.3076 13.825h3.3282v3.3282c0 1.8372-1.491 3.3282-3.3282 3.3282s-3.3282-1.491-3.3282-3.3282 1.491-3.3282 3.3282-3.3282z"/><use id="finity" width="100%" height="100%" transform="rotate(180 12.628 13.834)" xlink:href="#in"/><path id="free" fill="#294172" stroke-width=".07" d="m13.654 12.819v4.3369c0 2.4002-1.946 4.3463-4.3463 4.3463-0.36415 0-0.62303-0.04112-0.96015-0.12923-0.49152-0.12863-0.89321-0.53163-0.89339-1.0004 0-0.5666 0.41128-0.9787 1.026-0.9787 0.2926 0 0.39878 0.05618 0.82744 0.05618 1.2654 0 2.2919-1.025 2.2941-2.2904v-1.9934c0-0.17862-0.14515-0.32334-0.32407-0.32334l-1.5071-2.72e-4c-0.56151 0-1.0152-0.44787-1.0152-1.0109-2.996e-4 -0.56656 0.45833-1.0126 1.0259-1.0126"/><use id="dom" width="100%" height="100%" transform="rotate(180 12.628 13.834)" xlink:href="#free"/></svg>