<?xml version="1.0" encoding="UTF-8"?>
<!-- Created with Inkscape (http://www.inkscape.org/) -->
<svg width="100" height="100" version="1.1" viewBox="0 0 26.458333 26.458334" xmlns="http://www.w3.org/2000/svg" xmlns:cc="http://creativecommons.org/ns#" xmlns:dc="http://purl.org/dc/elements/1.1/" xmlns:rdf="http://www.w3.org/1999/02/22-rdf-syntax-ns#" xmlns:xlink="http://www.w3.org/1999/xlink">
 <metadata>
  <rdf:RDF>
   <cc:Work rdf:about="">
    <dc:format>image/svg+xml</dc:format>
    <dc:type rdf:resource="http://purl.org/dc/dcmitype/StillImage"/>
    <dc:title/>
   </cc:Work>
  </rdf:RDF>
 </metadata>
 <rect x="-1.4211e-14" y="8.5449e-6" width="26.458" height="26.458" fill="#294172" stroke-width=".27763"/>
 <path id="voice" d="m22.489 13.23c0-5.1145-4.1461-9.2611-9.2602-9.2611-5.1122 0-9.2567 4.1428-9.2602 9.2541v7.1663c0.00273 1.1606 0.94405 2.1001 2.1054 2.1001h7.1587c5.1128-0.0018 9.2567-4.1468 9.2567-9.2602" fill="#ffffff" stroke-width=".069562"/>
 <path id="in" d="m9.3076 13.825h3.3282v3.3282c0 1.8372-1.491 3.3282-3.3282 3.3282s-3.3282-1.491-3.3282-3.3282 1.491-3.3282 3.3282-3.3282z" fill="none" stroke="#3c6eb4" stroke-width="2.0319"/>
 <use id="finity" transform="rotate(180 12.628 13.834)" width="100%" height="100%" xlink:href="#in"/>
 <path id="free" d="m13.654 12.819v4.3369c0 2.4002-1.946 4.3463-4.3463 4.3463-0.36415 0-0.62303-0.04112-0.96015-0.12923-0.49152-0.12863-0.89321-0.53163-0.89339-1.0004 0-0.5666 0.41128-0.9787 1.026-0.9787 0.2926 0 0.39878 0.05618 0.82744 0.05618 1.2654 0 2.2919-1.025 2.2941-2.2904v-1.9934c0-0.17862-0.14515-0.32334-0.32407-0.32334l-1.5071-2.72e-4c-0.56151 0-1.0152-0.44787-1.0152-1.0109-2.996e-4 -0.56656 0.45833-1.0126 1.0259-1.0126" fill="#294172" stroke-width=".069562"/>
 <use id="dom" transform="rotate(180 12.628 13.834)" width="100%" height="100%" xlink:href="#free"/>
</svg>
