<svg height="100" viewBox="0 0 26.458333 26.458334" width="100" xmlns="http://www.w3.org/2000/svg" xmlns:xlink="http://www.w3.org/1999/xlink"><path d="m0 .000009h26.458v26.458h-26.458z" fill="#294172" stroke-width=".27763"/><path d="m22.489 13.23c0-5.1145-4.1461-9.2611-9.2602-9.2611-5.1122 0-9.2567 4.1428-9.2602 9.2541v7.1663c.00273 1.1606.94405 2.1001 2.1054 2.1001h7.1587c5.1128-.0018 9.2567-4.1468 9.2567-9.2602" fill="#fff" stroke-width=".069562"/><path id="a" d="m9.3076 13.825h3.3282v3.3282c0 1.8372-1.491 3.3282-3.3282 3.3282s-3.3282-1.491-3.3282-3.3282 1.491-3.3282 3.3282-3.3282z" fill="none" stroke="#3c6eb4" stroke-width="2.0319"/><use height="100%" transform="matrix(-1 0 0 -1 25.256 27.668)" width="100%" xlink:href="#a"/><path id="b" d="m13.654 12.819v4.3369c0 2.4002-1.946 4.3463-4.3463 4.3463-.36415 0-.62303-.04112-.96015-.12923-.49152-.12863-.89321-.53163-.89339-1.0004 0-.5666.41128-.9787 1.026-.9787.2926 0 .39878.05618.82744.05618 1.2654 0 2.2919-1.025 2.2941-2.2904v-1.9934c0-.17862-.14515-.32334-.32407-.32334l-1.5071-.000272c-.56151 0-1.0152-.44787-1.0152-1.0109-.0002996-.56656.45833-1.0126 1.0259-1.0126" fill="#294172" stroke-width=".069562"/><use height="100%" transform="matrix(-1 0 0 -1 25.256 27.668)" width="100%" xlink:href="#b"/></svg>