<svg xmlns="http://www.w3.org/2000/svg" width="100" height="100" version="1.1" viewBox="0 0 26.458 26.458"><metadata/><g transform="translate(0 -270.54)"><rect width="26.458" height="26.458" x="0" y="270.54" fill="#900" stroke-width=".278"/><path fill="#fff" stroke-width=".074" d="m22.42 274.83c0.99718 0.99658-1.7672 5.3777-2.2346 5.8453-0.46729 0.46662-1.6543 0.0373-2.6509-0.95968-0.99718-0.99659-1.4267-2.1838-0.95938-2.6512 0.46707-0.46751 4.8479-3.2317 5.8449-2.2345m-13.983 1.0545c-1.5223-0.86371-3.6886-1.8246-4.3776-1.1354-0.6982 0.6979 0.29779 2.9128 1.1707 4.4379a9.3614 9.3614 0 0 1 3.2069 -3.3025"/><path fill="#fff" stroke-width=".076" d="m20.831 280.03c0.14342 0.48638 0.11767 0.88818-0.11495 1.1204-0.54326 0.54348-2.0108-0.0351-3.3337-1.2941a6.7507 6.7507 0 0 1 -0.27393 -0.25891c-0.47838-0.47853-0.85057-0.98787-1.0886-1.457-0.46335-0.83123-0.57928-1.5654-0.22907-1.9156 0.19085-0.19062 0.4962-0.24258 0.8687-0.17559 0.24289-0.15363 0.52966-0.32476 0.84408-0.50006-1.2786-0.66689-2.7322-1.0435-4.2742-1.0435-5.1145 0-9.2608 4.1456-9.2608 9.2606 0 5.1141 4.1464 9.2602 9.2608 9.2602 5.1146 0 9.2607-4.1461 9.2607-9.2602 0-1.6518-0.43352-3.2006-1.1908-4.5433-0.16366 0.2987-0.3228 0.57233-0.46811 0.80715"/></g></svg>