<svg height="100" viewBox="0 0 26.458333 26.458334" width="100" xmlns="http://www.w3.org/2000/svg"><g transform="translate(0 -270.54)"><path d="m0 270.54h26.458v26.458h-26.458z" fill="#900" stroke-width=".27763"/><g fill="#fff"><path d="m22.42 274.83c.99718.99658-1.7672 5.3777-2.2346 5.8453-.46729.46662-1.6543.0373-2.6509-.95968-.99718-.99659-1.4267-2.1838-.95938-2.6512.46707-.46751 4.8479-3.2317 5.8449-2.2345m-13.983 1.0545c-1.5223-.86371-3.6886-1.8246-4.3776-1.1354-.6982.6979.29779 2.9128 1.1707 4.4379a9.3614 9.3614 0 0 1 3.2069-3.3025" stroke-width=".073821"/><path d="m20.831 280.03c.14342.48638.11767.88818-.11495 1.1204-.54326.54348-2.0108-.0351-3.3337-1.2941a6.7507 6.7507 0 0 1 -.27393-.25891c-.47838-.47853-.85057-.98787-1.0886-1.457-.46335-.83123-.57928-1.5654-.22907-1.9156.19085-.19062.4962-.24258.8687-.17559.24289-.15363.52966-.32476.84408-.50006-1.2786-.66689-2.7322-1.0435-4.2742-1.0435-5.1145 0-9.2608 4.1456-9.2608 9.2606 0 5.1141 4.1464 9.2602 9.2608 9.2602 5.1146 0 9.2607-4.1461 9.2607-9.2602 0-1.6518-.43352-3.2006-1.1908-4.5433-.16366.2987-.3228.57233-.46811.80715" stroke-width=".075526"/></g></g></svg>