<svg xmlns="http://www.w3.org/2000/svg" width="100" height="100" version="1.1" viewBox="0 0 26.458 26.458"><defs><clipPath id="clipPath91"><path fill="#000" d="m137.5 6.34h-0.16l-9.44 5.2-0.56-2.16 10.4-5.76h2.48v52h-2.72zm21.52 47.08c-2.29-2.053-4.09-5.08-5.4-9.08s-1.96-8.853-1.96-14.56c0-5.76 0.69-10.68 2.08-14.76s3.29-7.1467 5.72-9.2 5.16-3.08 8.2-3.08c4.64 0 8.29 2.2933 10.96 6.88 2.67 4.587 4 11.067 4 19.44 0 8.907-1.39 15.707-4.16 20.4s-6.67 7.04-11.68 7.04c-2.88 0-5.47-1.027-7.76-3.08zm17.44-5.68c2.24-4.347 3.36-10.52 3.36-18.52 0-7.68-1.08-13.64-3.24-17.88-2.16-4.24-5.21-6.36-9.16-6.36-2.51 0-4.73 0.9467-6.68 2.84-1.95 1.893-3.48 4.707-4.6 8.44s-1.68 8.267-1.68 13.6c0 5.173 0.53 9.6 1.6 13.28s2.53 6.453 4.4 8.32 4.03 2.8 6.48 2.8c4.11 0 7.28-2.173 9.52-6.52zm-174.52-38.44c-0.96-0.96-1.44-2.1867-1.44-3.68s0.48-2.72 1.44-3.68c0.96-0.96 2.1867-1.44 3.68-1.44 1.5467 0 2.8 0.48 3.76 1.44 0.96 0.96 1.44 2.1867 1.44 3.68s-0.48 2.72-1.44 3.68c-0.96 0.96-2.2133 1.44-3.76 1.44-1.4933 0-2.72-0.48-3.68-1.44zm-0.56 7.44h8.56v38.88h-8.56zm28.28 36.28c-3.653-2.32-6.48-5.547-8.48-9.68s-3-8.867-3-14.2c0-5.493 1.04-10.387 3.12-14.68s4.987-7.64 8.72-10.04 8.053-3.6 12.96-3.6c4.8 0 9.027 1.1467 12.68 3.44s6.48 5.52 8.48 9.68c2 4.16 3 8.907 3 14.24 0 5.6-1.013 10.533-3.04 14.8s-4.907 7.587-8.64 9.96-8.107 3.56-13.12 3.56c-4.8 0-9.027-1.16-12.68-3.48zm21.08-6.2c2.347-1.813 4.147-4.307 5.4-7.48s1.88-6.787 1.88-10.84c0-3.947-0.64-7.493-1.92-10.64s-3.08-5.613-5.4-7.4c-2.32-1.7867-5-2.68-8.04-2.68-3.093 0-5.8 0.9067-8.12 2.72-2.32 1.813-4.107 4.32-5.36 7.52s-1.88 6.827-1.88 10.88c0 3.893 0.627 7.413 1.88 10.56s3.053 5.613 5.4 7.4 5.04 2.68 8.08 2.68 5.733-0.907 8.08-2.72zm22.48 6.32 2-7.2c3.733 2.293 7.867 3.44 12.4 3.44 3.2 0 5.733-0.747 7.6-2.24s2.8-3.467 2.8-5.92c0-2.187-0.76-4.027-2.28-5.52s-4.013-2.907-7.48-4.24c-4.747-1.813-8.293-4-10.64-6.56s-3.52-5.547-3.52-8.96c0-2.933 0.76-5.533 2.28-7.8 1.52-2.2667 3.667-4.04 6.44-5.32s5.947-1.92 9.52-1.92c5.013 0 9.07 0.8533 12.16 2.56l-2.16 6.96c-2.987-1.6533-6.4-2.48-10.24-2.48-2.773 0-5.027 0.6533-6.76 1.96-1.733 1.307-2.6 3.027-2.6 5.16 0 1.387 0.307 2.587 0.92 3.6s1.653 1.973 3.12 2.88 3.56 1.92 6.28 3.04c4.64 1.867 8.07 4.093 10.28 6.68s3.32 5.693 3.32 9.32c0 3.147-0.8 5.92-2.4 8.32s-3.87 4.253-6.8 5.56c-2.933 1.307-6.4 1.96-10.4 1.96-5.653 0-10.267-1.093-13.84-3.28z"/></clipPath><clipPath id="clipPath85"><path fill="#000" stroke-width=".025" d="m54.357 55.615h-6.0355v-22.289c0-8.2067-2.8962-12.31-8.6898-12.31-1.3423 0-2.5749 0.28164-3.7012 0.84723-1.1215 0.56443-2.1052 1.3272-2.9371 2.2932-0.82947 0.96642-1.4744 2.0643-1.9323 3.2974-0.45563 1.233-0.68935 2.5219-0.68935 3.8617v24.3h-6.033v-23.735c0-3.2186-0.70104-5.8347-2.0924-7.8457-1.3949-2.011-3.4593-3.0177-6.1955-3.0177-1.3926 0-2.6824 0.30734-3.8613 0.92552-1.1799 0.61818-2.1998 1.4492-3.0586 2.494-0.86453 1.0447-1.5281 2.2271-2.0118 3.5415-0.479 1.3143-0.72429 2.6414-0.72429 3.9837v23.654h-6.0332v-28.723c0-1.556 0-3.178-0.11687-4.8687 0-1.6906-0.14022-3.4473-0.24541-5.2701h5.3929v6.3557h0.56068c2.7362-4.7745 6.7586-7.1617 12.069-7.1617 2.5761 0 4.8158 0.69882 6.72 2.0924 1.9043 1.3958 3.2561 3.3 4.0622 5.7127h0.16359c1.3937-2.5755 3.1778-4.5179 5.3497-5.8322 2.1729-1.3143 4.6521-1.9728 7.4443-1.9728 3.8075 0 6.8509 1.4618 9.1314 4.3855 2.2806 2.9237 3.4197 6.9889 3.4197 12.191v23.092zm31.385 0-0.56081-4.988h-0.24528c-2.6298 3.9151-6.5449 5.8728-11.748 5.8728-1.6624 0-3.193-0.26995-4.5867-0.80399-1.3961-0.53638-2.603-1.2991-3.6206-2.2932-1.0164-0.99447-1.8225-2.1585-2.4125-3.5009-0.59586-1.3398-0.88789-2.8169-0.88789-4.4262 0-4.7211 1.9569-8.3007 5.873-10.741 3.915-2.4407 9.6023-3.661 17.056-3.661v-0.88462c0-6.3812-2.9768-9.5744-8.9316-9.5744-3.7011 0-6.9735 0.93838-9.8148 2.8168l-1.4498-4.1847c3.4325-2.1991 7.4818-3.2999 12.15-3.2999 9.4398 0 14.161 5.1762 14.161 15.529v14.888c0 1.8762 0 3.5821 0.11687 5.11 0.11687 1.5306 0.23372 2.9111 0.44395 4.1441h-5.5529zm-1.0398-20.115h-1.2081c-10.406 0-15.61 3.0584-15.61 9.1728 0 2.4151 0.64249 4.21 1.9323 5.3922 1.2862 1.1796 2.895 1.7694 4.8273 1.7694 1.2338 0 2.4535-0.21387 3.6614-0.64389 1.2069-0.43004 2.2806-1.0319 3.2187-1.8101 0.93464-0.77828 1.7034-1.7287 2.2922-2.855 0.59586-1.1265 0.88789-2.3872 0.88789-3.7804zm41.923-12.633c-2.3624-1.2891-5.0972-1.9321-8.2072-1.9321-2.1988 0-4.1591 0.38914-5.8754 1.1674-1.7163 0.77828-3.1649 1.8508-4.3448 3.2185-1.1788 1.3678-2.0924 2.9898-2.735 4.8687-0.6426 1.8763-0.96969 3.9151-0.96969 6.1143 0 2.2525 0.33877 4.3193 1.0048 6.1956 0.66586 1.8763 1.6088 3.4728 2.8167 4.7872 1.2046 1.3143 2.6415 2.3339 4.304 3.0583 1.6625 0.72452 3.513 1.0856 5.5529 1.0856 2.8951 0 5.7656-0.64272 8.6104-1.9321l1.2044 4.6652c-3.0048 1.5025-6.6499 2.2525-10.941 2.2525-2.8459 0-5.4185-0.47094-7.7271-1.4085-2.305-0.93838-4.2911-2.2804-5.9536-4.0219-1.6625-1.744-2.9359-3.8212-3.8216-6.2364-0.88789-2.4151-1.3271-5.1228-1.3271-8.1278 0-3.0583 0.50238-5.8473 1.4872-8.3693 0.99307-2.5194 2.3751-4.6932 4.144-6.5161 1.77-1.8228 3.9032-3.2466 6.3964-4.2635 2.4943-1.0202 5.2432-1.5304 8.2482-1.5304 3.9149 0 7.1336 0.69882 9.6559 2.0922zm53.27 5.0695c0 4.238-0.5725 8.0997-1.7314 11.585-1.1567 3.488-2.7887 6.4906-4.9092 9.0125-2.1181 2.522-4.6685 4.4796-7.6453 5.8729-2.9768 1.3932-6.29 2.0922-9.9351 2.0922-3.4886 0-6.6791-0.68363-9.5742-2.0517-2.8985-1.3678-5.3928-3.2721-7.4852-5.7125-2.0924-2.4407-3.714-5.3389-4.8683-8.6898-1.1567-3.3508-1.7291-7.0397-1.7291-11.064 0-4.182 0.60755-8.0311 1.8109-11.545 1.2069-3.5134 2.8821-6.5159 5.0283-9.0125 2.1462-2.494 4.7059-4.4388 7.6827-5.832 2.9804-1.3932 6.2387-2.0925 9.781-2.0925 3.5389 0 6.7703 0.67194 9.6934 2.011 2.9242 1.3424 5.4057 3.2186 7.4444 5.6338 2.0387 2.4152 3.6206 5.311 4.7468 8.6898 1.1216 3.3786 1.6905 7.0804 1.6905 11.102zm-6.5191 0.32253c0-3.2185-0.43226-6.2084-1.2886-8.972-0.86452-2.7609-2.0515-5.176-3.5796-7.2405-1.5305-2.0643-3.353-3.6737-5.4712-4.8279-2.1181-1.1522-4.4663-1.7288-7.0401-1.7288-2.6287 0-5.0283 0.57728-7.2025 1.7288-2.1731 1.1546-4.0212 2.761-5.5517 4.8279-1.5305 2.0644-2.7233 4.533-3.582 7.4033-0.86464 2.8703-1.2864 5.9949-1.2864 9.3736 0 3.1652 0.43226 6.1296 1.2864 8.8906 0.85283 2.7635 2.0515 5.1633 3.582 7.2024 1.5281 2.039 3.3658 3.6482 5.512 4.8279 2.145 1.1796 4.5049 1.7695 7.0798 1.7695 2.6287 0 5.0284-0.59014 7.2025-1.7695 2.1742-1.1797 4.0225-2.8169 5.553-4.9094 1.5305-2.0922 2.7069-4.5456 3.5411-7.3626 0.82946-2.8169 1.2454-5.8879 1.2454-9.2134zm43.052 12.793c0 2.3059-0.43224 4.4135-1.2886 6.3177-0.85283 1.9042-2.0796 3.5287-3.6614 4.8685-1.5807 1.3424-3.4979 2.3746-5.7527 3.0992-2.2524 0.72452-4.7748 1.0856-7.5636 1.0856-5.5809 0-10.004-1.1522-13.276-3.4601l1.6882-5.0693c3.5925 2.2525 7.5892 3.3786 11.99 3.3786 3.7012 0 6.5716-0.88462 8.6103-2.6541 2.0398-1.7695 3.0586-4.1287 3.0586-7.0805 0-2.7356-0.79443-4.9473-2.374-6.6379-1.5842-1.6881-4.1977-3.2313-7.8463-4.627-9.2798-3.4856-13.919-8.5829-13.919-15.287 0-2.0899 0.40887-4.0221 1.2454-5.7915 0.82949-1.7695 1.999-3.3 3.5014-4.5864 1.5024-1.2864 3.2841-2.2779 5.3484-2.977 2.0644-0.69648 4.304-1.0447 6.72-1.0447 4.665 0 8.4736 0.86008 11.425 2.5753l-1.8506 4.988c-2.6287-1.6626-5.9011-2.4939-9.816-2.4939-3.1112 0-5.6335 0.77828-7.5635 2.3338-1.9324 1.5559-2.895 3.6203-2.895 6.1956 0 1.2331 0.17531 2.3339 0.52578 3.3 0.35043 0.96642 0.92293 1.8763 1.7314 2.7356 0.80608 0.86008 1.8915 1.678 3.2584 2.4533 1.3681 0.77828 3.0995 1.5966 5.1896 2.4535 2.4125 0.96642 4.4793 1.9983 6.1955 3.099 1.7162 1.1008 3.124 2.2932 4.2257 3.5796 1.0982 1.2891 1.8915 2.6975 2.374 4.2254 0.479 1.5203 0.72428 3.1956 0.72428 5.0211z" class="st0"/></clipPath></defs><metadata/><g transform="translate(0 -270.54)"><rect width="26.458" height="26.458" x="0" y="270.54" fill="#2b2e34" stroke-width=".278"/><path fill="#fff" d="m0 0h11.3v57h-11.3z" clip-path="url(#clipPath91)" transform="matrix(.073349 0 0 .073349 9.0388 282.02)"/><rect width="86.5" height="57" x="131" fill="#fff" clip-path="url(#clipPath85)" transform="matrix(.085574 0 0 .085574 -.97945 281.33)"/></g></svg>