<svg xmlns="http://www.w3.org/2000/svg" width="100" height="100" version="1.1" viewBox="0 0 26.458 26.458"><defs><clipPath id="clipPath1114"><path stroke-width=".772" d="m11.986 274.51c-0.1196 0-0.24304 6e-3 -0.3696 0.0175-3.2616 0.25693-2.3966 3.7091-2.446 4.8595-0.0594 0.84336-0.23147 1.5077-0.81095 2.331-0.68287 0.81096-1.6412 2.1219-2.0957 3.4884-0.21449 0.64196-0.31636 1.2994-0.22146 1.9205-0.0301 0.0262-0.05865 0.0525-0.08565 0.10411-0.20061 0.20676-0.34645 0.46372-0.5108 0.64736-0.15354 0.15339-0.37422 0.20618-0.61496 0.30866-0.24153 0.10498-0.50771 0.20764-0.66666 0.52545-0.06944 0.14494-0.10493 0.30324-0.10187 0.46372 0 0.15369 0.020709 0.30942 0.04243 0.41359 0.04474 0.30787 0.0895 0.56249 0.0301 0.74843-0.19137 0.5247-0.21528 0.88428-0.08101 1.1458 0.13427 0.2578 0.41281 0.36188 0.72453 0.46372 0.62577 0.15427 1.4738 0.10411 2.1412 0.4622 0.7145 0.36034 1.4398 0.51776 2.0185 0.36264 0.40586-0.0886 0.74845-0.35724 0.93209-0.72916 0.45293-2e-3 0.94907-0.20763 1.7438-0.2578 0.53935-0.0446 1.2145 0.20619 1.9892 0.1534 0.01925 0.10411 0.04861 0.15369 0.08796 0.2578l0.0023 2e-3c0.3017 0.60029 0.85879 0.87346 1.4537 0.82639 0.5949-0.0464 1.2284-0.41359 1.7415-1.0077 0.48688-0.59026 1.2986-0.83642 1.8349-1.1597 0.26853-0.1534 0.48534-0.36188 0.50077-0.65818 0.01779-0.30863-0.15354-0.62653-0.55092-1.0625v-0.075l-0.0023-2e-3c-0.13117-0.15427-0.19291-0.4128-0.2608-0.71449-0.06559-0.30942-0.14042-0.60647-0.37963-0.80708h-0.0023c-0.04552-0.0417-0.0949-0.0516-0.14506-0.10411-0.04322-0.0295-0.09335-0.0478-0.1466-0.0493 0.33256-0.98608 0.2037-1.9676-0.13348-2.8503-0.41126-1.088-1.1304-2.0355-1.6782-2.6875-0.6142-0.77547-1.216-1.51-1.2045-2.5995 0.02071-1.6605 0.18288-4.7322-2.7346-4.7369zm0.40818 2.6273h0.0099c0.16436 0 0.30555 0.0478 0.45062 0.15281 0.14736 0.10411 0.25462 0.25634 0.33873 0.41128 0.08101 0.19977 0.1219 0.35416 0.12808 0.55865 0-0.0146 0.0047-0.0309 0.0047-0.0455v0.0802c-0.0015-6e-3 -0.0032-0.0117-0.0032-0.0175l-0.0032-0.0175c-0.0015 0.18751-0.04089 0.37267-0.11575 0.54473-0.03628 0.0965-0.09183 0.18518-0.16436 0.25838-0.02246-0.0117-0.04398-0.0233-0.06789-0.0324-0.08101-0.0347-0.15354-0.0493-0.21992-0.10265-0.0548-0.0204-0.11187-0.0394-0.16897-0.051 0.03782-0.0455 0.11187-0.10265 0.14042-0.15281 0.04089-0.0989 0.06328-0.20385 0.06789-0.31018v-0.0146c0.0015-0.10411-0.014-0.2091-0.04707-0.30863-0.03473-0.10411-0.07792-0.15515-0.14121-0.2578-0.0648-0.051-0.12884-0.10178-0.20601-0.10178h-0.01225c-0.07177 0-0.13581 0.0233-0.20216 0.10178-0.07329 0.0726-0.12808 0.15981-0.15818 0.2578-0.04089 0.098-0.0648 0.20356-0.06944 0.30863v0.0146c0.0015 0.0688 0.0061 0.13824 0.01546 0.20618-0.14894-0.0516-0.33796-0.10411-0.46836-0.15573-0.0079-0.0502-0.01225-0.10177-0.014-0.15368v-0.0146c-0.0061-0.20356 0.03319-0.40586 0.11575-0.59338 0.06328-0.16885 0.179-0.31327 0.33179-0.41126 0.13193-0.0994 0.29244-0.15339 0.45833-0.15339zm-2.2855 0.0455h0.0277c0.10956 0 0.20834 0.037 0.30787 0.10411 0.11266 0.0994 0.2037 0.22222 0.26544 0.35879 0.06944 0.15369 0.10881 0.30939 0.11805 0.51464v3e-3c0.0053 0.10352 0.0047 0.15514-0.0015 0.2053v0.0618c-0.02304 6e-3 -0.04322 0.0146-0.06404 0.0175-0.11729 0.0423-0.21143 0.10411-0.30324 0.15427 0.0093-0.0685 0.0099-0.13824 0.0023-0.20589v-0.0117c-0.0093-0.10265-0.03009-0.15369-0.06327-0.25692-0.02391-0.0787-0.06789-0.14903-0.12808-0.20618-0.03782-0.0347-0.08874-0.0525-0.14121-0.0493h-0.01633c-0.0548 6e-3 -0.10032 0.0318-0.14351 0.10178-0.04937 0.0595-0.08101 0.13211-0.09259 0.20822-0.020709 0.0834-0.02712 0.16915-0.017791 0.25547v0.0117c0.0093 0.10411 0.02858 0.15515 0.0625 0.2578 0.03473 0.10353 0.07483 0.15427 0.12732 0.20677 0.0085 6e-3 0.01633 0.0146 0.02625 0.0175-0.05401 0.044-0.09029 0.054-0.13581 0.10498-0.02858 0.0204-0.06174 0.0464-0.10108 0.0525-0.08026-0.0965-0.15124-0.20065-0.21219-0.31021-0.07407-0.16215-0.11266-0.33794-0.1196-0.51464-0.013121-0.17439 0.0085-0.34876 0.06174-0.51542 0.04243-0.15194 0.11729-0.29245 0.21837-0.41283 0.09877-0.10265 0.20061-0.15427 0.32253-0.15427zm1.0579 1.3164c0.25541 0 0.56481 0.0502 0.9375 0.30785 0.22607 0.15427 0.40355 0.20764 0.81249 0.36112h0.0023c0.19676 0.10499 0.3125 0.20531 0.36883 0.30787v-0.10119c0.05634 0.11344 0.06019 0.24526 0.01225 0.36264-0.0949 0.24001-0.39815 0.4969-0.82098 0.65048v2e-3c-0.20679 0.10411-0.38657 0.25693-0.59799 0.35879-0.21298 0.10411-0.4537 0.22514-0.78086 0.20589-0.11729 6e-3 -0.23534-0.0117-0.34568-0.0516-0.08486-0.0464-0.16821-0.0971-0.24847-0.15281-0.15045-0.10411-0.28008-0.25634-0.47222-0.35882v-3e-3h-0.0038c-0.30864-0.18985-0.47531-0.39507-0.52932-0.54861-0.05325-0.20676-0.0038-0.36188 0.14894-0.46296 0.17285-0.10411 0.29321-0.2091 0.37268-0.25926 0.08026-0.0572 0.11032-0.0787 0.13581-0.10119h0.0015v-2e-3c0.13039-0.15572 0.33642-0.36188 0.64737-0.46374 0.10726-0.0292 0.22686-0.0502 0.35956-0.0502zm2.1597 1.6535c0.27702 1.0933 0.9236 2.6813 1.3395 3.4514 0.22068 0.41205 0.65972 1.2801 0.8503 2.3333 0.12036-3e-3 0.25386 0.0146 0.39583 0.0493 0.49846-1.2894-0.4213-2.6751-0.84028-3.0602-0.17052-0.15514-0.179-0.25838-0.0949-0.25838 0.45447 0.41204 1.0532 1.2129 1.2701 2.1273 0.09953 0.41281 0.12269 0.85185 0.01633 1.2886 0.05171 0.0204 0.10417 0.047 0.15818 0.0516 0.79629 0.41202 1.0903 0.72377 0.94907 1.1859v-0.0332c-0.04707-2e-3 -0.09259 0-0.13966 0h-0.01167c0.1165-0.36034-0.14042-0.63657-0.82175-0.94444-0.70602-0.30863-1.2701-0.25926-1.3665 0.35882-0.0052 0.0332-0.0093 0.051-0.01312 0.10411-0.05246 0.0175-0.10726 0.0408-0.16127 0.0493-0.33179 0.20677-0.5108 0.51619-0.61188 0.91589-0.10032 0.41126-0.13118 0.89198-0.15818 1.4421v2e-3c-0.01633 0.2578-0.13193 0.6466-0.24613 1.0424-1.1574 0.82715-2.7623 1.1867-4.1273 0.2578-0.08565-0.14902-0.18982-0.28871-0.31018-0.41125-0.0571-0.0965-0.12963-0.18285-0.21219-0.2578 0.14042 0 0.2608-0.0233 0.35879-0.0516 0.11187-0.0516 0.19831-0.14494 0.24228-0.2578 0.08335-0.20589 0-0.53779-0.2662-0.89737-0.2662-0.36033-0.71836-0.76774-1.3796-1.1736-0.48611-0.30787-0.7608-0.6713-0.88734-1.0772-0.12732-0.41204-0.11032-0.83718-0.011671-1.2693 0.18903-0.8256 0.67361-1.6281 0.98302-2.1319 0.08256-0.0502 0.02858 0.10412-0.31481 0.75153-0.30555 0.57947-0.88039 1.9267-0.09414 2.9737 0.02931-0.76311 0.19907-1.5162 0.49923-2.2191 0.43518-0.98608 1.3449-2.7037 1.4167-4.0648 0.03704 0.0292 0.16742 0.10411 0.22298 0.15573 0.16821 0.10265 0.29321 0.25693 0.45525 0.35882 0.16282 0.15515 0.36805 0.25838 0.67592 0.25838 0.0301 2e-3 0.05786 6e-3 0.08565 6e-3 0.31712 0 0.5625-0.10353 0.76851-0.20677 0.22377-0.10323 0.402-0.2578 0.57098-0.30863h0.0038c0.36034-0.10411 0.64506-0.3102 0.80632-0.54012zm1.6867 6.912c0.02858 0.46372 0.26465 0.96063 0.68055 1.0625 0.4537 0.10323 1.1065-0.25693 1.3819-0.59029l0.16282-6e-3c0.24304-6e-3 0.44522 9e-3 0.65355 0.20589l0.0023 2e-3c0.16048 0.1534 0.23534 0.40971 0.3017 0.67591 0.06559 0.30942 0.11884 0.60186 0.31559 0.82254 0.375 0.40661 0.49768 0.69906 0.49074 0.87961l0.0023-6e-3v0.0146l-0.0023-9e-3c-0.01167 0.2021-0.14275 0.30557-0.38426 0.45911-0.48611 0.30942-1.3472 0.54937-1.8958 1.2114-0.47685 0.56865-1.0579 0.87885-1.571 0.91895-0.51234 0.0408-0.95447-0.15427-1.2145-0.69288l-0.0038-2e-3c-0.16203-0.30939-0.09259-0.79087 0.04322-1.304 0.13581-0.51542 0.33025-1.0378 0.35725-1.4645 0.02858-0.55091 0.05865-1.0301 0.15045-1.3997 0.09259-0.35882 0.23765-0.61499 0.4946-0.75926l0.03473-0.0175zm-8.3449 0.0379h0.0076c0.04089 0 0.08102 3e-3 0.12114 0.0117 0.29011 0.0426 0.54475 0.25693 0.78935 0.58026l0.70216 1.284 0.0023 2e-3c0.18749 0.41126 0.58179 0.821 0.91744 1.2639 0.33487 0.46142 0.59413 0.87267 0.5625 1.2114v6e-3c-0.04398 0.57407-0.3696 0.88579-0.86805 0.99845-0.49768 0.10411-1.1728 2e-3 -1.848-0.358-0.74691-0.41359-1.6343-0.36189-2.2045-0.46451-0.28472-0.051-0.47145-0.15515-0.55787-0.30942-0.08565-0.15339-0.0872-0.46375 0.0949-0.94907v-2e-3l0.00151-2e-3c0.09029-0.2578 0.02304-0.58101-0.020709-0.8634-0.04243-0.30941-0.06404-0.54706 0.03319-0.72531 0.12345-0.2578 0.30555-0.30787 0.53163-0.41128 0.22762-0.10411 0.49459-0.15573 0.70678-0.36188h0.00151v-2e-3c0.19752-0.20676 0.34336-0.46371 0.51543-0.6466 0.1466-0.15514 0.29321-0.25925 0.51157-0.25925zm5.5239-7.0015c-0.33564 0.15515-0.72916 0.4128-1.1481 0.4128-0.41821 0-0.74845-0.20589-0.98688-0.35955-0.1196-0.10353-0.21604-0.20676-0.28857-0.25838-0.12654-0.10353-0.11111-0.2578-0.0571-0.2578 0.08411 0.0117 0.09953 0.10411 0.15354 0.15514 0.07407 0.051 0.16591 0.1534 0.27853 0.25693 0.22452 0.15427 0.52469 0.36034 0.89969 0.36034 0.37423 0 0.8125-0.20589 1.0787-0.35958 0.15045-0.10411 0.34336-0.2578 0.5-0.36034 0.12036-0.10557 0.11496-0.20676 0.21528-0.20676 0.09953 0.0117 0.02625 0.10352-0.11341 0.25692-0.13966 0.10411-0.35571 0.25838-0.5324 0.36112v-7.7e-4zm-0.83487-1.2222v-0.0175c-0.0047-0.0146 0.0099-0.0324 0.02246-0.0385 0.0571-0.0332 0.13888-0.0204 0.20061 3e-3 0.04861 0 0.12345 0.0516 0.11575 0.10411-0.0047 0.0379-0.06559 0.051-0.10417 0.051-0.04243 0-0.07098-0.0332-0.10881-0.0525-0.04013-0.0146-0.11266-6e-3 -0.12578-0.0502zm-0.42515 0c-0.01546 0.0449-0.0872 0.0379-0.12808 0.051-0.03628 0.0204-0.06635 0.0525-0.10726 0.0525-0.03934 0-0.10108-0.0146-0.10572-0.0525-7e-3 -0.051 0.06789-0.10265 0.11575-0.10265 0.0625-0.0233 0.14196-0.0362 0.19985-3e-3 0.01458 6e-3 0.02771 0.0233 0.02304 0.0385v0.0175h0.0023z"/></clipPath></defs><metadata/><g stroke-width=".278" transform="translate(0 -270.54)"><rect width="26.458" height="26.458" y="270.54" fill="#fcc624"/><rect width="26.458" height="26.458" x="0" y="270.54" fill="#fff" clip-path="url(#clipPath1114)" transform="matrix(1 0 0 1 1.6321 -.0051893)"/></g></svg>