<svg height="100" viewBox="0 0 26.458333 26.458334" width="100" xmlns="http://www.w3.org/2000/svg" xmlns:xlink="http://www.w3.org/1999/xlink"><clipPath id="a"><path d="m11.986 274.51c-.1196 0-.24304.006-.3696.0175-3.2616.25693-2.3966 3.7091-2.446 4.8595-.0594.84336-.23147 1.5077-.81095 2.331-.68287.81096-1.6412 2.1219-2.0957 3.4884-.21449.64196-.31636 1.2994-.22146 1.9205-.0301.0262-.05865.0525-.08565.10411-.20061.20676-.34645.46372-.5108.64736-.15354.15339-.37422.20618-.61496.30866-.24153.10498-.50771.20764-.66666.52545-.06944.14494-.10493.30324-.10187.46372 0 .15369.020709.30942.04243.41359.04474.30787.0895.56249.0301.74843-.19137.5247-.21528.88428-.08101 1.1458.13427.2578.41281.36188.72453.46372.62577.15427 1.4738.10411 2.1412.4622.7145.36034 1.4398.51776 2.0185.36264.40586-.0886.74845-.35724.93209-.72916.45293-.002.94907-.20763 1.7438-.2578.53935-.0446 1.2145.20619 1.9892.1534.01925.10411.04861.15369.08796.2578l.0023.002c.3017.60029.85879.87346 1.4537.82639.5949-.0464 1.2284-.41359 1.7415-1.0077.48688-.59026 1.2986-.83642 1.8349-1.1597.26853-.1534.48534-.36188.50077-.65818.01779-.30863-.15354-.62653-.55092-1.0625v-.075l-.0023-.002c-.13117-.15427-.19291-.4128-.2608-.71449-.06559-.30942-.14042-.60647-.37963-.80708h-.0023c-.04552-.0417-.0949-.0516-.14506-.10411-.04322-.0295-.09335-.0478-.1466-.0493.33256-.98608.2037-1.9676-.13348-2.8503-.41126-1.088-1.1304-2.0355-1.6782-2.6875-.6142-.77547-1.216-1.51-1.2045-2.5995.02071-1.6605.18288-4.7322-2.7346-4.7369zm.40818 2.6273h.0099c.16436 0 .30555.0478.45062.15281.14736.10411.25462.25634.33873.41128.08101.19977.1219.35416.12808.55865 0-.0146.0047-.0309.0047-.0455v.0802c-.0015-.006-.0032-.0117-.0032-.0175l-.0032-.0175c-.0015.18751-.04089.37267-.11575.54473-.03628.0965-.09183.18518-.16436.25838-.02246-.0117-.04398-.0233-.06789-.0324-.08101-.0347-.15354-.0493-.21992-.10265-.0548-.0204-.11187-.0394-.16897-.051.03782-.0455.11187-.10265.14042-.15281.04089-.0989.06328-.20385.06789-.31018v-.0146c.0015-.10411-.014-.2091-.04707-.30863-.03473-.10411-.07792-.15515-.14121-.2578-.0648-.051-.12884-.10178-.20601-.10178h-.01225c-.07177 0-.13581.0233-.20216.10178-.07329.0726-.12808.15981-.15818.2578-.04089.098-.0648.20356-.06944.30863v.0146c.0015.0688.0061.13824.01546.20618-.14894-.0516-.33796-.10411-.46836-.15573-.0079-.0502-.01225-.10177-.014-.15368v-.0146c-.0061-.20356.03319-.40586.11575-.59338.06328-.16885.179-.31327.33179-.41126.13193-.0994.29244-.15339.45833-.15339zm-2.2855.0455h.0277c.10956 0 .20834.037.30787.10411.11266.0994.2037.22222.26544.35879.06944.15369.10881.30939.11805.51464v.003c.0053.10352.0047.15514-.0015.2053v.0618c-.02304.006-.04322.0146-.06404.0175-.11729.0423-.21143.10411-.30324.15427.0093-.0685.0099-.13824.0023-.20589v-.0117c-.0093-.10265-.03009-.15369-.06327-.25692-.02391-.0787-.06789-.14903-.12808-.20618-.03782-.0347-.08874-.0525-.14121-.0493h-.01633c-.0548.006-.10032.0318-.14351.10178-.04937.0595-.08101.13211-.09259.20822-.020709.0834-.02712.16915-.017791.25547v.0117c.0093.10411.02858.15515.0625.2578.03473.10353.07483.15427.12732.20677.0085.006.01633.0146.02625.0175-.05401.044-.09029.054-.13581.10498-.02858.0204-.06174.0464-.10108.0525-.08026-.0965-.15124-.20065-.21219-.31021-.07407-.16215-.11266-.33794-.1196-.51464-.013121-.17439.0085-.34876.06174-.51542.04243-.15194.11729-.29245.21837-.41283.09877-.10265.20061-.15427.32253-.15427zm1.0579 1.3164c.25541 0 .56481.0502.9375.30785.22607.15427.40355.20764.81249.36112h.0023c.19676.10499.3125.20531.36883.30787v-.10119c.05634.11344.06019.24526.01225.36264-.0949.24001-.39815.4969-.82098.65048v.002c-.20679.10411-.38657.25693-.59799.35879-.21298.10411-.4537.22514-.78086.20589-.11729.006-.23534-.0117-.34568-.0516-.08486-.0464-.16821-.0971-.24847-.15281-.15045-.10411-.28008-.25634-.47222-.35882v-.003h-.0038c-.30864-.18985-.47531-.39507-.52932-.54861-.05325-.20676-.0038-.36188.14894-.46296.17285-.10411.29321-.2091.37268-.25926.08026-.0572.11032-.0787.13581-.10119h.0015v-.002c.13039-.15572.33642-.36188.64737-.46374.10726-.0292.22686-.0502.35956-.0502zm2.1597 1.6535c.27702 1.0933.9236 2.6813 1.3395 3.4514.22068.41205.65972 1.2801.8503 2.3333.12036-.003.25386.0146.39583.0493.49846-1.2894-.4213-2.6751-.84028-3.0602-.17052-.15514-.179-.25838-.0949-.25838.45447.41204 1.0532 1.2129 1.2701 2.1273.09953.41281.12269.85185.01633 1.2886.05171.0204.10417.047.15818.0516.79629.41202 1.0903.72377.94907 1.1859v-.0332c-.04707-.002-.09259 0-.13966 0h-.01167c.1165-.36034-.14042-.63657-.82175-.94444-.70602-.30863-1.2701-.25926-1.3665.35882-.0052.0332-.0093.051-.01312.10411-.05246.0175-.10726.0408-.16127.0493-.33179.20677-.5108.51619-.61188.91589-.10032.41126-.13118.89198-.15818 1.4421v.002c-.01633.2578-.13193.6466-.24613 1.0424-1.1574.82715-2.7623 1.1867-4.1273.2578-.08565-.14902-.18982-.28871-.31018-.41125-.0571-.0965-.12963-.18285-.21219-.2578.14042 0 .2608-.0233.35879-.0516.11187-.0516.19831-.14494.24228-.2578.08335-.20589 0-.53779-.2662-.89737-.2662-.36033-.71836-.76774-1.3796-1.1736-.48611-.30787-.7608-.6713-.88734-1.0772-.12732-.41204-.11032-.83718-.011671-1.2693.18903-.8256.67361-1.6281.98302-2.1319.08256-.0502.02858.10412-.31481.75153-.30555.57947-.88039 1.9267-.09414 2.9737.02931-.76311.19907-1.5162.49923-2.2191.43518-.98608 1.3449-2.7037 1.4167-4.0648.03704.0292.16742.10411.22298.15573.16821.10265.29321.25693.45525.35882.16282.15515.36805.25838.67592.25838.0301.002.05786.006.08565.006.31712 0 .5625-.10353.76851-.20677.22377-.10323.402-.2578.57098-.30863h.0038c.36034-.10411.64506-.3102.80632-.54012zm1.6867 6.912c.02858.46372.26465.96063.68055 1.0625.4537.10323 1.1065-.25693 1.3819-.59029l.16282-.006c.24304-.006.44522.009.65355.20589l.0023.002c.16048.1534.23534.40971.3017.67591.06559.30942.11884.60186.31559.82254.375.40661.49768.69906.49074.87961l.0023-.006v.0146l-.0023-.009c-.01167.2021-.14275.30557-.38426.45911-.48611.30942-1.3472.54937-1.8958 1.2114-.47685.56865-1.0579.87885-1.571.91895-.51234.0408-.95447-.15427-1.2145-.69288l-.0038-.002c-.16203-.30939-.09259-.79087.04322-1.304.13581-.51542.33025-1.0378.35725-1.4645.02858-.55091.05865-1.0301.15045-1.3997.09259-.35882.23765-.61499.4946-.75926l.03473-.0175zm-8.3449.0379h.0076c.04089 0 .08102.003.12114.0117.29011.0426.54475.25693.78935.58026l.70216 1.284.0023.002c.18749.41126.58179.821.91744 1.2639.33487.46142.59413.87267.5625 1.2114v.006c-.04398.57407-.3696.88579-.86805.99845-.49768.10411-1.1728.002-1.848-.358-.74691-.41359-1.6343-.36189-2.2045-.46451-.28472-.051-.47145-.15515-.55787-.30942-.08565-.15339-.0872-.46375.0949-.94907v-.002l.00151-.002c.09029-.2578.02304-.58101-.020709-.8634-.04243-.30941-.06404-.54706.03319-.72531.12345-.2578.30555-.30787.53163-.41128.22762-.10411.49459-.15573.70678-.36188h.00151v-.002c.19752-.20676.34336-.46371.51543-.6466.1466-.15514.29321-.25925.51157-.25925zm5.5239-7.0015c-.33564.15515-.72916.4128-1.1481.4128-.41821 0-.74845-.20589-.98688-.35955-.1196-.10353-.21604-.20676-.28857-.25838-.12654-.10353-.11111-.2578-.0571-.2578.08411.0117.09953.10411.15354.15514.07407.051.16591.1534.27853.25693.22452.15427.52469.36034.89969.36034.37423 0 .8125-.20589 1.0787-.35958.15045-.10411.34336-.2578.5-.36034.12036-.10557.11496-.20676.21528-.20676.09953.0117.02625.10352-.11341.25692-.13966.10411-.35571.25838-.5324.36112v-.00077zm-.83487-1.2222v-.0175c-.0047-.0146.0099-.0324.02246-.0385.0571-.0332.13888-.0204.20061.003.04861 0 .12345.0516.11575.10411-.0047.0379-.06559.051-.10417.051-.04243 0-.07098-.0332-.10881-.0525-.04013-.0146-.11266-.006-.12578-.0502zm-.42515 0c-.01546.0449-.0872.0379-.12808.051-.03628.0204-.06635.0525-.10726.0525-.03934 0-.10108-.0146-.10572-.0525-.007-.051.06789-.10265.11575-.10265.0625-.0233.14196-.0362.19985-.003.01458.006.02771.0233.02304.0385v.0175h.0023z"/></clipPath><g stroke-width=".27763" transform="translate(0 -270.54)"><path d="m0 270.54h26.458v26.458h-26.458z" fill="#fcc624"/><path clip-path="url(#a)" d="m0 270.54h26.458v26.458h-26.458z" fill="#fff" transform="translate(1.6321 -.005189)"/></g></svg>