<svg xmlns="http://www.w3.org/2000/svg" width="100" height="100" version="1.1" viewBox="0 0 26.458 26.458"><metadata/><g transform="translate(0 -270.54)"><rect width="26.458" height="26.458" x="0" y="270.54" fill="#2b2e34" stroke-width=".278"/><path fill="#fff" stroke-width=".002" d="m8.6203 286.09h-0.51648v-1.9073c0-0.70227-0.24783-1.0534-0.74361-1.0534-0.11487 0-0.22034 0.0241-0.31672 0.0725-0.09597 0.0483-0.18014 0.11357-0.25133 0.19624-0.07098 0.0827-0.12617 0.17665-0.16536 0.28217-0.03899 0.10551-0.05899 0.21581-0.05899 0.33046v2.0794h-0.51627v-2.0311c0-0.27543-0.05999-0.49929-0.17906-0.67138-0.11937-0.17209-0.29602-0.25823-0.53017-0.25823-0.11917 0-0.22954 0.0263-0.33042 0.0792-0.10097 0.0529-0.18824 0.12401-0.26173 0.21342-0.07398 0.0894-0.13077 0.19058-0.17216 0.30306-0.04099 0.11247-0.06198 0.22603-0.06198 0.3409v2.0241h-0.51628v-2.4579c0-0.13315 0-0.27195-0.01-0.41663 0-0.14467-0.012-0.295-0.021-0.45098h0.46149v0.54388h0.04798c0.23414-0.40857 0.57835-0.61285 1.0327-0.61285 0.22044 0 0.4121 0.0598 0.57506 0.17905 0.16296 0.11944 0.27863 0.28239 0.34761 0.48885h0.014c0.11927-0.22039 0.27193-0.38661 0.45779-0.49908 0.18594-0.11247 0.3981-0.16882 0.63703-0.16882 0.32582 0 0.58626 0.12509 0.7814 0.37528 0.19515 0.25019 0.29263 0.59806 0.29263 1.0432v1.976zm2.6857 0-0.04799-0.42684h-0.02099c-0.22504 0.33503-0.56006 0.50255-1.0054 0.50255-0.14226 0-0.27323-0.0231-0.3925-0.0688-0.11947-0.0459-0.22274-0.11117-0.30982-0.19624-0.08698-0.0851-0.15596-0.18471-0.20644-0.29958-0.05099-0.11465-0.07598-0.24105-0.07598-0.37876 0-0.404 0.16746-0.71032 0.50257-0.91917 0.33502-0.20886 0.8217-0.31328 1.4595-0.31328v-0.0757c0-0.54606-0.25473-0.81931-0.76431-0.81931-0.31671 0-0.59674 0.0803-0.83989 0.24104l-0.12407-0.3581c0.29373-0.18818 0.64024-0.28238 1.0397-0.28238 0.80779 0 1.2118 0.44294 1.2118 1.3288v1.274c0 0.16055 0 0.30653 0.01 0.43728 0.01 0.13098 0.02 0.24911 0.03799 0.35462h-0.47518zm-0.08898-1.7213h-0.10338c-0.89048 0-1.3358 0.26172-1.3358 0.78495 0 0.20667 0.05498 0.36026 0.16536 0.46143 0.11007 0.10094 0.24773 0.15141 0.41309 0.15141 0.10558 0 0.20996-0.0183 0.31332-0.0551 0.10328-0.0368 0.19516-0.0883 0.27543-0.1549 0.07998-0.0666 0.14577-0.14793 0.19616-0.24431 0.05099-0.0964 0.07598-0.20428 0.07598-0.3235zm3.5875-1.081c-0.20215-0.11031-0.43619-0.16534-0.70232-0.16534-0.18816 0-0.35591 0.0333-0.50278 0.0999s-0.27083 0.15838-0.3718 0.27542c-0.10088 0.11705-0.17906 0.25585-0.23404 0.41663-0.05499 0.16056-0.08298 0.33503-0.08298 0.52322 0 0.19275 0.02899 0.36962 0.08598 0.53018 0.05698 0.16056 0.13767 0.29718 0.24103 0.40966 0.10308 0.11247 0.22604 0.19972 0.36831 0.26171 0.14227 0.062 0.30062 0.0929 0.47518 0.0929 0.24774 0 0.49338-0.055 0.73682-0.16534l0.10307 0.39922c-0.25713 0.12857-0.56906 0.19275-0.93626 0.19275-0.24353 0-0.46368-0.0403-0.66123-0.12053-0.19724-0.0803-0.3672-0.19514-0.50947-0.34417-0.14227-0.14924-0.25123-0.32699-0.32702-0.53367-0.07598-0.20667-0.11357-0.43837-0.11357-0.69552 0-0.26171 0.04299-0.50037 0.12727-0.71619 0.08498-0.21559 0.20324-0.40161 0.35461-0.5576 0.15147-0.15598 0.33401-0.27782 0.54736-0.36484 0.21344-0.0873 0.44868-0.13096 0.70582-0.13096 0.33501 0 0.61044 0.0598 0.82629 0.17904zm4.5584 0.43381c0 0.36266-0.04899 0.69312-0.14816 0.9914-0.09898 0.29848-0.23864 0.55542-0.42009 0.77123-0.18126 0.21582-0.3995 0.38333-0.65424 0.50256-0.25474 0.11922-0.53826 0.17904-0.85018 0.17904-0.29853 0-0.57156-0.0585-0.8193-0.17557-0.24803-0.11705-0.46148-0.28-0.64053-0.48884-0.17906-0.20886-0.31782-0.45687-0.4166-0.74361-0.09898-0.28674-0.14797-0.60241-0.14797-0.94681 0-0.35787 0.05199-0.68725 0.15497-0.98792 0.10328-0.30065 0.24663-0.55759 0.43029-0.77123 0.18366-0.21342 0.4027-0.37984 0.65743-0.49906 0.25504-0.11922 0.53387-0.17906 0.83699-0.17906 0.30283 0 0.57935 0.0575 0.82949 0.17209 0.25024 0.11487 0.46258 0.27543 0.63704 0.4821 0.17446 0.20668 0.30982 0.45448 0.4062 0.74361 0.09598 0.28912 0.14466 0.60589 0.14466 0.95007zm-0.55786 0.0276c0-0.27542-0.03699-0.53127-0.11027-0.76776-0.07398-0.23626-0.17556-0.44293-0.30632-0.61959-0.13097-0.17665-0.28693-0.31437-0.46819-0.41314-0.18126-0.0986-0.3822-0.14794-0.60244-0.14794-0.22494 0-0.43029 0.0494-0.61634 0.14794-0.18596 0.0988-0.34411 0.23627-0.47508 0.41314-0.13097 0.17666-0.23304 0.3879-0.30652 0.63352-0.07399 0.24562-0.11008 0.513-0.11008 0.80213 0 0.27086 0.03699 0.52453 0.11008 0.7608 0.07298 0.23648 0.17556 0.44184 0.30652 0.61633 0.13077 0.17448 0.28802 0.31219 0.47168 0.41314 0.18356 0.10094 0.3855 0.15142 0.60584 0.15142 0.22494 0 0.4303-0.0505 0.61634-0.15142 0.18606-0.10095 0.34422-0.24105 0.47518-0.42011 0.13097-0.17904 0.23164-0.38898 0.30302-0.63004 0.07098-0.24105 0.10657-0.50385 0.10657-0.78842zm3.6841 1.0947c0 0.19732-0.03699 0.37768-0.11027 0.54063-0.07298 0.16295-0.17796 0.30196-0.31332 0.41661-0.13527 0.11487-0.29933 0.2032-0.49228 0.26521-0.19275 0.062-0.4086 0.0929-0.64724 0.0929-0.47758 0-0.85608-0.0986-1.1361-0.29609l0.14446-0.4338c0.30742 0.19275 0.64944 0.28912 1.026 0.28912 0.31672 0 0.56236-0.0757 0.73681-0.22712 0.17456-0.15142 0.26173-0.35331 0.26173-0.6059 0-0.23409-0.06798-0.42336-0.20315-0.56803-0.13557-0.14446-0.35921-0.27651-0.67143-0.39595-0.7941-0.29827-1.1911-0.73447-1.1911-1.3082 0-0.17884 0.03499-0.34418 0.10657-0.4956 0.07098-0.15142 0.17106-0.28239 0.29962-0.39247s0.28103-0.19493 0.45768-0.25475c0.17666-0.0596 0.36831-0.0894 0.57506-0.0894 0.3992 0 0.72512 0.0736 0.97765 0.22038l-0.15836 0.42684c-0.22494-0.14227-0.50497-0.21341-0.83999-0.21341-0.26623 0-0.48208 0.0666-0.64724 0.19971-0.16536 0.13314-0.24774 0.3098-0.24774 0.53018 0 0.10552 0.015 0.19972 0.04499 0.28239 0.02999 0.0827 0.07898 0.16056 0.14816 0.23409 0.06898 0.0736 0.16186 0.14359 0.27883 0.20994 0.11707 0.0666 0.26523 0.13663 0.44409 0.20995 0.20645 0.0827 0.3833 0.171 0.53017 0.26519 0.14686 0.0942 0.26733 0.19624 0.36161 0.30632 0.09398 0.11031 0.16186 0.23083 0.20315 0.36158 0.04099 0.1301 0.06198 0.27346 0.06198 0.42967z" class="st0"/></g></svg>