<svg height="100" viewBox="0 0 26.458333 26.458334" width="100" xmlns="http://www.w3.org/2000/svg"><g transform="translate(0 -270.54)"><path d="m0 270.54h26.458v26.458h-26.458z" fill="#2b2e34" stroke-width=".27763"/><path d="m8.6203 286.09h-.51648v-1.9073c0-.70227-.24783-1.0534-.74361-1.0534-.11487 0-.22034.0241-.31672.0725-.09597.0483-.18014.11357-.25133.19624-.07098.0827-.12617.17665-.16536.28217-.03899.10551-.05899.21581-.05899.33046v2.0794h-.51627v-2.0311c0-.27543-.05999-.49929-.17906-.67138-.11937-.17209-.29602-.25823-.53017-.25823-.11917 0-.22954.0263-.33042.0792-.10097.0529-.18824.12401-.26173.21342-.07398.0894-.13077.19058-.17216.30306-.04099.11247-.06198.22603-.06198.3409v2.0241h-.51628v-2.4579c0-.13315 0-.27195-.01-.41663 0-.14467-.012-.295-.021-.45098h.46149v.54388h.04798c.23414-.40857.57835-.61285 1.0327-.61285.22044 0 .4121.0598.57506.17905.16296.11944.27863.28239.34761.48885h.014c.11927-.22039.27193-.38661.45779-.49908.18594-.11247.3981-.16882.63703-.16882.32582 0 .58626.12509.7814.37528.19515.25019.29263.59806.29263 1.0432v1.976zm2.6857 0-.04799-.42684h-.02099c-.22504.33503-.56006.50255-1.0054.50255-.14226 0-.27323-.0231-.3925-.0688-.11947-.0459-.22274-.11117-.30982-.19624-.08698-.0851-.15596-.18471-.20644-.29958-.05099-.11465-.07598-.24105-.07598-.37876 0-.404.16746-.71032.50257-.91917.33502-.20886.8217-.31328 1.4595-.31328v-.0757c0-.54606-.25473-.81931-.76431-.81931-.31671 0-.59674.0803-.83989.24104l-.12407-.3581c.29373-.18818.64024-.28238 1.0397-.28238.80779 0 1.2118.44294 1.2118 1.3288v1.274c0 .16055 0 .30653.01.43728.01.13098.02.24911.03799.35462h-.47518zm-.08898-1.7213h-.10338c-.89048 0-1.3358.26172-1.3358.78495 0 .20667.05498.36026.16536.46143.11007.10094.24773.15141.41309.15141.10558 0 .20996-.0183.31332-.0551.10328-.0368.19516-.0883.27543-.1549.07998-.0666.14577-.14793.19616-.24431.05099-.0964.07598-.20428.07598-.3235zm3.5875-1.081c-.20215-.11031-.43619-.16534-.70232-.16534-.18816 0-.35591.0333-.50278.0999s-.27083.15838-.3718.27542c-.10088.11705-.17906.25585-.23404.41663-.05499.16056-.08298.33503-.08298.52322 0 .19275.02899.36962.08598.53018.05698.16056.13767.29718.24103.40966.10308.11247.22604.19972.36831.26171.14227.062.30062.0929.47518.0929.24774 0 .49338-.055.73682-.16534l.10307.39922c-.25713.12857-.56906.19275-.93626.19275-.24353 0-.46368-.0403-.66123-.12053-.19724-.0803-.3672-.19514-.50947-.34417-.14227-.14924-.25123-.32699-.32702-.53367-.07598-.20667-.11357-.43837-.11357-.69552 0-.26171.04299-.50037.12727-.71619.08498-.21559.20324-.40161.35461-.5576.15147-.15598.33401-.27782.54736-.36484.21344-.0873.44868-.13096.70582-.13096.33501 0 .61044.0598.82629.17904zm4.5584.43381c0 .36266-.04899.69312-.14816.9914-.09898.29848-.23864.55542-.42009.77123-.18126.21582-.3995.38333-.65424.50256-.25474.11922-.53826.17904-.85018.17904-.29853 0-.57156-.0585-.8193-.17557-.24803-.11705-.46148-.28-.64053-.48884-.17906-.20886-.31782-.45687-.4166-.74361-.09898-.28674-.14797-.60241-.14797-.94681 0-.35787.05199-.68725.15497-.98792.10328-.30065.24663-.55759.43029-.77123.18366-.21342.4027-.37984.65743-.49906.25504-.11922.53387-.17906.83699-.17906.30283 0 .57935.0575.82949.17209.25024.11487.46258.27543.63704.4821.17446.20668.30982.45448.4062.74361.09598.28912.14466.60589.14466.95007zm-.55786.0276c0-.27542-.03699-.53127-.11027-.76776-.07398-.23626-.17556-.44293-.30632-.61959-.13097-.17665-.28693-.31437-.46819-.41314-.18126-.0986-.3822-.14794-.60244-.14794-.22494 0-.43029.0494-.61634.14794-.18596.0988-.34411.23627-.47508.41314-.13097.17666-.23304.3879-.30652.63352-.07399.24562-.11008.513-.11008.80213 0 .27086.03699.52453.11008.7608.07298.23648.17556.44184.30652.61633.13077.17448.28802.31219.47168.41314.18356.10094.3855.15142.60584.15142.22494 0 .4303-.0505.61634-.15142.18606-.10095.34422-.24105.47518-.42011.13097-.17904.23164-.38898.30302-.63004.07098-.24105.10657-.50385.10657-.78842zm3.6841 1.0947c0 .19732-.03699.37768-.11027.54063-.07298.16295-.17796.30196-.31332.41661-.13527.11487-.29933.2032-.49228.26521-.19275.062-.4086.0929-.64724.0929-.47758 0-.85608-.0986-1.1361-.29609l.14446-.4338c.30742.19275.64944.28912 1.026.28912.31672 0 .56236-.0757.73681-.22712.17456-.15142.26173-.35331.26173-.6059 0-.23409-.06798-.42336-.20315-.56803-.13557-.14446-.35921-.27651-.67143-.39595-.7941-.29827-1.1911-.73447-1.1911-1.3082 0-.17884.03499-.34418.10657-.4956.07098-.15142.17106-.28239.29962-.39247s.28103-.19493.45768-.25475c.17666-.0596.36831-.0894.57506-.0894.3992 0 .72512.0736.97765.22038l-.15836.42684c-.22494-.14227-.50497-.21341-.83999-.21341-.26623 0-.48208.0666-.64724.19971-.16536.13314-.24774.3098-.24774.53018 0 .10552.015.19972.04499.28239.02999.0827.07898.16056.14816.23409.06898.0736.16186.14359.27883.20994.11707.0666.26523.13663.44409.20995.20645.0827.3833.171.53017.26519.14686.0942.26733.19624.36161.30632.09398.11031.16186.23083.20315.36158.04099.1301.06198.27346.06198.42967z" fill="#fff" stroke-width=".002176"/></g></svg>