<svg xmlns="http://www.w3.org/2000/svg" width="100" height="100" version="1.1" viewBox="0 0 26.458 26.458"><metadata/><g transform="translate(0 -270.54)"><rect width="26.458" height="26.458" x="0" y="270.54" fill="#73ba25" stroke-width=".278"/><path fill="#fff" fill-rule="evenodd" stroke-width=".2" d="m11.815 286.7 0.0272-3e-3 0.0049-0.0319c-0.0073-0.0247-0.02355-0.0471-0.04953-0.35762-0.02172-0.27466-0.06577-1.0274 0.32276-1.401 0.15042-0.14554 0.38102-0.27545 0.5621-0.31703 0.74439-0.17742 1.6173-0.0547 2.442 0.87606 0.4267 0.4812 0.63517 0.70041 0.73992 0.79883l0.03613 0.0321 0.04324 0.0311c0.03451 0.0186 1.4185 0.64 1.4185 0.64l0.02822-7e-3 3.91e-4 -0.0289c-0.0087-0.0101-0.87694-1.1044-0.72307-2.0056 0.1222-0.71783 0.70805-0.65327 1.5178-0.56376 0.2645 0.0295 0.56616 0.0636 0.87735 0.0701 0.87024 5e-3 1.8079-0.1507 2.386-0.39724 0.37351-0.15901 0.61183-0.26417 0.76123-0.39684 0.054-0.0434 0.08161-0.11426 0.11063-0.18971l0.0203-0.0507c0.02416-0.061 0.05948-0.1909 0.07491-0.2614 0.0071-0.0315 0.01035-0.065-0.01197-0.082l-0.08039 0.0145c-0.25293 0.14871-0.8873 0.4309-1.4809 0.44219-0.73586 0.0149-2.2179-0.722-2.3728-0.79982l-0.01462-0.0172c-0.03694-0.0863-0.25882-0.59941-0.30652-0.70793 1.0674 0.68555 1.9518 1.0646 2.6294 1.1236 0.75454 0.0653 1.342-0.33585 1.5939-0.50754 0.04913-0.0321 0.08648-0.0584 0.1015-0.0642l0.01624-0.0257c-0.04162-0.25821-0.43563-1.5089-0.73342-1.8099-0.08242-0.082-0.14859-0.16237-0.28196-0.23841-1.0781-0.61309-3.6369-0.983-3.7571-1l-0.0203 6e-3 -0.0075 0.0178s-0.01035 0.51764-0.01117 0.57506c-0.26227-0.085-2.1621-0.68358-3.943-0.74378-1.5101-0.0521-3.7091-0.24218-6.6238 1.5054l-0.08627 0.0527c-1.371 0.83467-2.3174 1.863-2.8123 3.0587-0.15509 0.37585-0.36418 1.225-0.15793 2.0234 0.08972 0.34912 0.25618 0.69941 0.48008 1.0139 0.50607 0.70932 1.3552 1.18 2.2707 1.2596 1.2913 0.11227 2.2701-0.45348 2.6176-1.5131 0.23933-0.73109 0-1.8042-0.91673-2.3515-0.74581-0.44535-1.548-0.34357-2.0131-0.044-0.40416 0.26119-0.63294 0.66654-0.62888 1.1123 0.0093 0.79011 0.70764 1.2101 1.2092 1.2111 0.14616 0 0.29231-0.0244 0.45735-0.077 0.05846-0.0176 0.11449-0.039 0.17498-0.0756l0.01908-0.0115 0.01259-8e-3 -0.0049 2e-3c0.11449-0.0754 0.18391-0.1992 0.18391-0.33207 0-0.036-0.0055-0.0731-0.01604-0.1101-0.05887-0.19961-0.26146-0.32061-0.47156-0.28377l-0.02842 6e-3 -0.03857 0.0121-0.05582 0.0182c-0.1155 0.0283-0.20218 0.0301-0.22045 0.0309-0.05927-4e-3 -0.34794-0.0881-0.34794-0.39684v-4e-3c6.12e-4 -0.11308 0.04709-0.19288 0.07288-0.23625 0.08911-0.13723 0.33535-0.27248 0.66847-0.24357 0.43583 0.0364 0.75007 0.25446 0.95814 0.66616 0.19366 0.38298 0.14311 0.85327-0.13032 1.1986-0.271 0.34218-0.75352 0.48694-1.3962 0.41902-0.64776-0.0695-1.195-0.43328-1.5018-0.99942-0.30003-0.55289-0.31667-1.2089-0.04243-1.7127 0.65588-1.207 1.8938-1.1943 2.5728-1.0806 1.0052 0.1701 2.1479 1.0749 2.5539 2.1188 0.06516 0.16634 0.09845 0.29842 0.12667 0.41823l0.04405 0.18079 1.1352 0.5408zm7.9773-5.8922c-0.21416 0.19426-0.33616 0.45902-0.34651 0.74418-0.0199 0.58813 0.45309 1.0832 1.0554 1.1054 0.29414 0.01 0.57204-0.0913 0.7858-0.28653 0.21376-0.19426 0.33576-0.45863 0.34692-0.74319 0.0203-0.58833-0.45268-1.0846-1.0566-1.106-0.29211-0.01-0.57123 0.0915-0.78498 0.28613" clip-rule="evenodd"/></g></svg>