<svg height="100" viewBox="0 0 26.458333 26.458334" width="100" xmlns="http://www.w3.org/2000/svg"><g transform="translate(0 -270.54)"><path d="m0 270.54h26.458v26.458h-26.458z" fill="#73ba25" stroke-width=".27763"/><path clip-rule="evenodd" d="m11.815 286.7.0272-.003.0049-.0319c-.0073-.0247-.02355-.0471-.04953-.35762-.02172-.27466-.06577-1.0274.32276-1.401.15042-.14554.38102-.27545.5621-.31703.74439-.17742 1.6173-.0547 2.442.87606.4267.4812.63517.70041.73992.79883l.03613.0321.04324.0311c.03451.0186 1.4185.64 1.4185.64l.02822-.007.000391-.0289c-.0087-.0101-.87694-1.1044-.72307-2.0056.1222-.71783.70805-.65327 1.5178-.56376.2645.0295.56616.0636.87735.0701.87024.005 1.8079-.1507 2.386-.39724.37351-.15901.61183-.26417.76123-.39684.054-.0434.08161-.11426.11063-.18971l.0203-.0507c.02416-.061.05948-.1909.07491-.2614.0071-.0315.01035-.065-.01197-.082l-.08039.0145c-.25293.14871-.8873.4309-1.4809.44219-.73586.0149-2.2179-.722-2.3728-.79982l-.01462-.0172c-.03694-.0863-.25882-.59941-.30652-.70793 1.0674.68555 1.9518 1.0646 2.6294 1.1236.75454.0653 1.342-.33585 1.5939-.50754.04913-.0321.08648-.0584.1015-.0642l.01624-.0257c-.04162-.25821-.43563-1.5089-.73342-1.8099-.08242-.082-.14859-.16237-.28196-.23841-1.0781-.61309-3.6369-.983-3.7571-1l-.0203.006-.0075.0178s-.01035.51764-.01117.57506c-.26227-.085-2.1621-.68358-3.943-.74378-1.5101-.0521-3.7091-.24218-6.6238 1.5054l-.08627.0527c-1.371.83467-2.3174 1.863-2.8123 3.0587-.15509.37585-.36418 1.225-.15793 2.0234.08972.34912.25618.69941.48008 1.0139.50607.70932 1.3552 1.18 2.2707 1.2596 1.2913.11227 2.2701-.45348 2.6176-1.5131.23933-.73109 0-1.8042-.91673-2.3515-.74581-.44535-1.548-.34357-2.0131-.044-.40416.26119-.63294.66654-.62888 1.1123.0093.79011.70764 1.2101 1.2092 1.2111.14616 0 .29231-.0244.45735-.077.05846-.0176.11449-.039.17498-.0756l.01908-.0115.01259-.008-.0049.002c.11449-.0754.18391-.1992.18391-.33207 0-.036-.0055-.0731-.01604-.1101-.05887-.19961-.26146-.32061-.47156-.28377l-.02842.006-.03857.0121-.05582.0182c-.1155.0283-.20218.0301-.22045.0309-.05927-.004-.34794-.0881-.34794-.39684v-.004c.000612-.11308.04709-.19288.07288-.23625.08911-.13723.33535-.27248.66847-.24357.43583.0364.75007.25446.95814.66616.19366.38298.14311.85327-.13032 1.1986-.271.34218-.75352.48694-1.3962.41902-.64776-.0695-1.195-.43328-1.5018-.99942-.30003-.55289-.31667-1.2089-.04243-1.7127.65588-1.207 1.8938-1.1943 2.5728-1.0806 1.0052.1701 2.1479 1.0749 2.5539 2.1188.06516.16634.09845.29842.12667.41823l.04405.18079 1.1352.5408zm7.9773-5.8922c-.21416.19426-.33616.45902-.34651.74418-.0199.58813.45309 1.0832 1.0554 1.1054.29414.01.57204-.0913.7858-.28653.21376-.19426.33576-.45863.34692-.74319.0203-.58833-.45268-1.0846-1.0566-1.106-.29211-.01-.57123.0915-.78498.28613" fill="#fff" fill-rule="evenodd" stroke-width=".20049"/></g></svg>