<svg height="100" viewBox="0 0 26.458333 26.458334" width="100" xmlns="http://www.w3.org/2000/svg"><path d="m0 .000009h26.458v26.458h-26.458z" fill="#c51a4a" stroke-width=".27763"/><g stroke-width=".056652"><path d="m9.9286 3.97c-.093646.003-.19449.0375-.30893.12775-.2802-.10803-.55196-.14559-.79495.0744-.37521-.0487-.49712.0518-.58952.16905-.082373-.002-.61632-.0847-.86123.2806-.61536-.0728-.80985.36195-.58947.76742-.12571.19454-.25596.38676.037957.75772-.10396.20656-.039487.43068.20542.70187-.06464.29046.062431.49532.29034.65502-.042659.39742.36444.6285.48596.71082.046682.23154.14395.4501.6089.57089.076707.34512.35612.40472.62675.47713-.89437.5199-1.6613 1.2039-1.6561 2.8822l-.13104.2337c-1.0255.62363-1.9482 2.6281-.50534 4.2573.094213.50999.25227.8763.393 1.2817.21046 1.6336 1.5841 2.3986 1.9465 2.4891.53089.40438 1.0963.78809 1.8615 1.0569.7213.7439 1.5028 1.0274 2.2885 1.027.01156 0 1.602-.28303 2.3233-1.027.76515-.26882 1.3306-.65253 1.8615-1.0569.36229-.0905 1.7359-.85546 1.9464-2.4891.14072-.40541.29878-.77172.39306-1.2817 1.4427-1.6294.52012-3.6339-.5054-4.2576l-.13121-.23369c.0052-1.6782-.76175-2.3622-1.6561-2.8822.27057-.0724.55004-.132.62669-.47713.46495-.12084.56228-.33935.6089-.57089.12158-.0823.52862-.3134.48602-.71082.22786-.1597.35493-.36461.29029-.65501.24496-.2712.30938-.49532.20542-.70193.29397-.37073.16356-.56296.03801-.7575.22026-.40546.02589-.84027-.5897-.76742-.2448-.36529-.77863-.28235-.86123-.28065-.09234-.11722-.21426-.21766-.58947-.169-.24298-.21998-.51469-.18247-.79495-.0744-.33278-.26259-.55298-.0521-.80452.0275-.40286-.13166-.49503.0487-.69297.12215-.4394-.0929-.57293.10928-.78356.32263l-.24502-.005c-.66272.39056-.99198 1.1858-1.1087 1.5947-.11676-.40891-.44523-1.2042-1.1078-1.5947l-.24502.005c-.21092-.21335-.34439-.41549-.78379-.32263-.198-.0735-.28983-.25381-.69303-.12215-.16508-.0522-.31691-.16078-.49565-.15522l-4.5488 7.9878" fill="#fff"/><g fill="#c51a4a" transform="translate(0 -270.54)"><path d="m8.6091 276.23c1.7583.9065 2.7804 1.6398 3.3405 2.2643-.28678 1.1494-1.7829 1.2019-2.3299 1.1696.112-.0521.20548-.1146.23862-.21052-.13727-.0976-.62397-.0103-.96377-.20117.13053-.0271.1916-.0534.25261-.14973-.32099-.10237-.6668-.19064-.87018-.36026.10974.001.21222.0246.35555-.0748-.28751-.15495-.59434-.27777-.83273-.51464.14866-.004.30893-.001.35555-.0561-.26315-.16305-.48523-.34433-.66901-.54267.20803.0251.2959.004.3462-.0328-.19896-.20378-.45073-.37583-.57077-.62692.15443.0533.29578.0736.39764-.005-.067586-.15251-.35719-.24248-.52398-.59888.16265.0158.3351.0355.3696 0-.075461-.30751-.20497-.48041-.33198-.65955.34802-.005.87534.001.85149-.028l-.21522-.21987c.33997-.0915.68782.0147.94037.0935.11336-.0895-.00204-.20259-.14038-.31811.28893.0386.54998.10498.786.19647.12605-.11381-.081863-.22768-.18248-.3415.44636.0846.63547.20367.82339.32281.13636-.1307.0078-.2418-.084185-.35555.33657.12463.50993.28558.6924.44444.06186-.0835.15721-.14475.04209-.34621.23896.13772.41894.30003.55208.48189.14786-.0942.08809-.22287.08889-.34156.24836.20202.40597.41702.59887.62692.03886-.0283.07286-.12424.10294-.27601.59241.57474 1.4296 2.0225.21516 2.5965-1.0335-.8524-2.2679-1.472-3.6357-1.9368l.0003966-.00023"/><path d="m17.939 276.23c-1.758.90661-2.7802 1.6397-3.3402 2.2643.28678 1.1494 1.7828 1.2019 2.3298 1.1696-.112-.0521-.20548-.1146-.23856-.21052.13727-.0976.62397-.0103.96371-.20117-.13053-.0271-.19154-.0534-.25261-.14973.32105-.10237.66686-.19064.87018-.36026-.10974.001-.21222.0246-.35555-.0748.28757-.15495.5944-.27777.83279-.51464-.14871-.004-.30898-.001-.35555-.0561.26315-.16305.48523-.34433.66901-.54267-.20808.0251-.2959.004-.3462-.0328.19891-.20378.45073-.37583.57077-.62692-.15449.0533-.29584.0736-.3977-.005.06759-.15251.35725-.24248.52398-.59888-.16259.0158-.3351.0355-.3696 0 .07563-.30762.20514-.48052.33215-.65966-.34802-.005-.87534.001-.85149-.028l.21522-.21993c-.33997-.0915-.68782.0147-.94037.0936-.11336-.0894.002-.20259.14033-.3181-.28887.0385-.54998.10498-.78594.19647-.12611-.11382.08186-.22769.18248-.3415-.44636.0846-.63547.20366-.82344.3228-.13636-.13069-.0078-.24179.08424-.35555-.33657.12464-.50993.28559-.6924.44444-.06192-.0835-.15721-.14474-.04215-.3462-.2389.13772-.41889.30003-.55202.48189-.14786-.0942-.08809-.22293-.08889-.34156-.24836.20202-.40597.41696-.59887.62691-.03886-.0283-.07286-.12423-.10294-.27606-.59241.57479-1.4296 2.0226-.21516 2.5966 1.0329-.85262 2.2672-1.4721 3.6352-1.9369h-.000226"/><path d="m15.403 287.93c.0061 1.0726-.93188 1.9467-2.095 1.9523-1.1632.006-2.1111-.85924-2.1172-1.9318-.000056-.007-.000056-.0136 0-.0204-.0061-1.0726.93182-1.9466 2.095-1.9523 1.1632-.006 2.111.85925 2.1172 1.9318v.0205"/><path d="m12.078 282.39c.87267.5718 1.03 1.8678.35136 2.8947s-1.9362 1.396-2.8089.82423c-.87267-.57179-1.0299-1.8678-.35136-2.8947.67864-1.0269 1.9362-1.396 2.8089-.82424"/><path d="m14.434 282.28c-.87262.57174-1.0299 1.8678-.35136 2.8947.67864 1.0269 1.9362 1.396 2.8089.82418.87267-.57174 1.03-1.8677.35136-2.8947-.67858-1.0269-1.9362-1.3959-2.8089-.82418"/><path d="m7.7169 283.32c.94219-.25256.3181 3.8979-.44852 3.5573-.84327-.67825-1.1149-2.6645.44852-3.5573"/><path d="m18.605 283.27c-.9423-.2525-.3181 3.8981.44852 3.5576.84327-.6783 1.1149-2.6648-.44852-3.5576"/><path d="m15.404 280.18c1.626-.27454 2.979.6915 2.9243 2.4546-.05348.67598-3.5234-2.354-2.9243-2.4546"/><path d="m10.911 280.13c-1.6261-.2746-2.979.69167-2.9243 2.4547.05348.67592 3.5234-2.354 2.9243-2.4547"/><path d="m13.247 279.71c-.97046-.0253-1.9018.72023-1.9041 1.1527-.0027.52539.7673 1.0634 1.9107 1.077 1.1676.008 1.9127-.43062 1.9164-.97284.0043-.61434-1.0619-1.2664-1.9231-1.2569v.00005"/><path d="m13.306 290.49c.8461-.0369 1.9814.2725 1.9837.68306.01405.39861-1.0297 1.2993-2.0398 1.2819-1.0461.0451-2.0719-.85693-2.0585-1.1696-.01569-.45843 1.2738-.81636 2.1146-.79534"/><path d="m10.181 288.06c.60238.72572.87704 2.0008.3743 2.3766-.4756.28694-1.6306.16876-2.4515-1.0106-.55366-.98961-.48234-1.9966-.09359-2.2924.58131-.35408 1.4795.12424 2.1708.92638h-.000057"/><path d="m16.311 287.83c-.65179.76339-1.0147 2.1558-.53927 2.6043.45464.34841 1.675.29969 2.5765-.95114.65456-.8401.43526-2.2431.06135-2.6156-.55542-.4296-1.3528.12022-2.0986.9623v.00023"/></g></g></svg>