<svg xmlns="http://www.w3.org/2000/svg" width="100" height="100" viewBox="0 0 26.458 26.458"><path d="M0 0h26.458v26.458H0z" fill="#2b2e34"/><g fill="#fff"><path d="M7.562 11.208v.962H8.7v.433H7.562v1.84q0 .415.112.533.115.118.463.118h.572v.466h-.572q-.645 0-.9-.24-.245-.242-.245-.878v-1.84h-.4v-.433h.4v-.962zm1.483.962h.6l1.06 2.845 1.06-2.845h.6l-1.27 3.4h-.757z"/><path d="M14.7 10.83c-.303 0-.582.06-.837.18s-.474.286-.657.5-.327.47-.43.77-.155.63-.155.988c0 .344.05.66.148.947a2.26 2.26 0 0 0 .417.744c.18.21.392.372.64.49s.52.176.82.176a1.98 1.98 0 0 0 .85-.179c.255-.12.473-.287.654-.503s.32-.473.42-.77a3.13 3.13 0 0 0 .148-.992 3 3 0 0 0-.145-.95c-.096-.29-.232-.537-.406-.744a1.81 1.81 0 0 0-.637-.482c-.25-.115-.527-.172-.83-.172zm3.986.007c-.207 0-.398.03-.575.09a1.37 1.37 0 0 0-.458.255 1.16 1.16 0 0 0-.3.393c-.072.15-.106.317-.106.496 0 .574.397 1 1.19 1.308.312.12.536.25.67.396s.203.334.203.568c0 .253-.087.455-.26.606s-.42.227-.737.227c-.377 0-.72-.096-1.026-.29l-.144.434c.28.197.658.296 1.136.296a2.11 2.11 0 0 0 .648-.092 1.42 1.42 0 0 0 .492-.266c.135-.115.24-.254.314-.417s.1-.343.1-.54h.001c0-.156-.02-.3-.062-.43s-.11-.25-.203-.362a1.63 1.63 0 0 0-.362-.306c-.147-.094-.324-.182-.53-.265-.18-.073-.327-.143-.444-.2s-.2-.137-.28-.2a.68.68 0 0 1-.148-.234c-.03-.083-.045-.177-.045-.282 0-.22.083-.397.248-.53s.38-.2.647-.2c.335 0 .615.07.84.213l.158-.427c-.253-.147-.58-.22-.978-.22zm-4.014.42a1.24 1.24 0 0 1 .603.148c.18.1.337.237.468.413s.232.383.306.62.1.492.1.768a2.78 2.78 0 0 1-.106.788c-.07.24-.172.45-.303.63s-.29.32-.475.42a1.27 1.27 0 0 1-.617.151c-.22 0-.422-.05-.606-.15a1.47 1.47 0 0 1-.472-.413 2 2 0 0 1-.306-.617 2.56 2.56 0 0 1-.11-.761 2.77 2.77 0 0 1 .11-.802 2.03 2.03 0 0 1 .306-.634 1.41 1.41 0 0 1 .475-.413c.186-.098.392-.148.617-.148z"/></g></svg>