<svg height="100" viewBox="0 0 26.458333 26.458334" width="100" xmlns="http://www.w3.org/2000/svg"><path d="m0 .000009h26.458v26.458h-26.458z" fill="#dd4814" stroke-width=".27763"/><circle cx="13.229" cy="13.229" fill="#fff" r="9.2604" stroke-width=".065339"/><g fill="#dd4814" stroke-width=".074671" transform="matrix(.87503 0 0 .87503 1.6534 -235.08)"><circle cx="6.0325" cy="283.77" r="1.4129"/><path d="m9.8237 288.88c-1.2365-.82612-2.1564-2.0891-2.5385-3.5684.44639-.36374.73151-.91772.73151-1.5387s-.28512-1.175-.73151-1.5387c.38207-1.4793 1.3019-2.7423 2.5385-3.5684l1.033 1.7304c-1.0611.74683-1.7551 1.9802-1.7551 3.3767 0 1.3966.69392 2.6299 1.7551 3.3767z"/><circle cx="231.94" cy="-153.34" r="1.4129" transform="matrix(-.5 .8660254 -.8660254 -.5 0 0)"/><path d="m10.509 278.27c1.3337-.6578 2.8874-.82293 4.3596-.41416.0918.56846.42901 1.0924.96681 1.4029s1.1601.34057 1.6983.13585c1.0901 1.0705 1.7239 2.4987 1.8211 3.9826l-2.0151.0294c-.1162-1.2924-.83735-2.51-2.0468-3.2083-1.2094-.69828-2.6245-.714-3.8019-.16843z"/><circle cx="-259.56" cy="-130.43" r="1.4129" transform="matrix(-.5 -.8660254 .8660254 -.5 0 0)"/><path d="m19.355 284.17c-.09718 1.4839-.73103 2.912-1.8211 3.9826-.5382-.20472-1.1605-.17465-1.6983.13585s-.87501.83441-.96681 1.4029c-1.4722.40877-3.0259.24364-4.3596-.41416l.98207-1.7598c1.1773.54557 2.5924.52985 3.8019-.16843 1.2094-.69827 1.9306-1.9159 2.0468-3.2083z"/></g></svg>