<svg xmlns="http://www.w3.org/2000/svg" width="100" height="100" version="1.1" viewBox="0 0 26.458 26.458"><metadata/><rect width="26.458" height="26.458" x="0" y="0" fill="#dd4814" stroke-width=".278"/><circle cx="13.229" cy="13.229" r="9.26" fill="#fff" stroke-width=".065"/><g fill="#dd4814" stroke-width=".075" transform="matrix(.87503 0 0 .87503 1.6534 -235.08)"><circle cx="6.032" cy="283.77" r="1.413"/><path d="m9.8237 288.88c-1.2365-0.82612-2.1564-2.0891-2.5385-3.5684 0.44639-0.36374 0.73151-0.91772 0.73151-1.5387s-0.28512-1.175-0.73151-1.5387c0.38207-1.4793 1.3019-2.7423 2.5385-3.5684l1.033 1.7304c-1.0611 0.74683-1.7551 1.9802-1.7551 3.3767 0 1.3966 0.69392 2.6299 1.7551 3.3767z"/><circle cx="231.94" cy="-153.34" r="1.413" transform="rotate(120)"/><path d="m10.509 278.27c1.3337-0.6578 2.8874-0.82293 4.3596-0.41416 0.0918 0.56846 0.42901 1.0924 0.96681 1.4029s1.1601 0.34057 1.6983 0.13585c1.0901 1.0705 1.7239 2.4987 1.8211 3.9826l-2.0151 0.0294c-0.1162-1.2924-0.83735-2.51-2.0468-3.2083-1.2094-0.69828-2.6245-0.714-3.8019-0.16843z"/><circle cx="-259.56" cy="-130.43" r="1.413" transform="rotate(240)"/><path d="m19.355 284.17c-0.09718 1.4839-0.73103 2.912-1.8211 3.9826-0.5382-0.20472-1.1605-0.17465-1.6983 0.13585s-0.87501 0.83441-0.96681 1.4029c-1.4722 0.40877-3.0259 0.24364-4.3596-0.41416l0.98207-1.7598c1.1773 0.54557 2.5924 0.52985 3.8019-0.16843 1.2094-0.69827 1.9306-1.9159 2.0468-3.2083z"/></g></svg>