<?xml version="1.0" encoding="utf-8"?>
<!-- Generator: Adobe Illustrator 23.0.1, SVG Export Plug-In . SVG Version: 6.00 Build 0)  -->
<!DOCTYPE svg PUBLIC "-//W3C//DTD SVG 1.1//EN" "http://www.w3.org/Graphics/SVG/1.1/DTD/svg11.dtd" [
	<!ENTITY ns_extend "http://ns.adobe.com/Extensibility/1.0/">
	<!ENTITY ns_ai "http://ns.adobe.com/AdobeIllustrator/10.0/">
	<!ENTITY ns_graphs "http://ns.adobe.com/Graphs/1.0/">
	<!ENTITY ns_vars "http://ns.adobe.com/Variables/1.0/">
	<!ENTITY ns_imrep "http://ns.adobe.com/ImageReplacement/1.0/">
	<!ENTITY ns_sfw "http://ns.adobe.com/SaveForWeb/1.0/">
	<!ENTITY ns_custom "http://ns.adobe.com/GenericCustomNamespace/1.0/">
	<!ENTITY ns_adobe_xpath "http://ns.adobe.com/XPath/1.0/">
]>
<svg version="1.1" id="Livello_1" xmlns:x="&ns_extend;" xmlns:i="&ns_ai;" xmlns:graph="&ns_graphs;"
	 xmlns="http://www.w3.org/2000/svg" xmlns:xlink="http://www.w3.org/1999/xlink" x="0px" y="0px" viewBox="0 0 297 296"
	 style="enable-background:new 0 0 297 296;" xml:space="preserve">
<style type="text/css">
	.st0{fill:#1E75BC;}
	.st1{fill:#FFFFFF;}
</style>
<metadata>
	<sfw  xmlns="&ns_sfw;">
		<slices></slices>
		<sliceSourceBounds  bottomLeftOrigin="true" height="296" width="297" x="0" y="0"></sliceSourceBounds>
	</sfw>
</metadata>
<polyline class="st0" points="0,0 297,0 297,296 0,296 0,0 "/>
<g>
	<path class="st1" d="M123.2,29.1c7.8-1.7,16.8-1.8,23.4,3.3c6.7,5,9,13.7,9.3,21.6c0.1,9.3,0,18.5,0.1,27.8c-1.7,0.2-3.3,0.5-5,0.8
		c0-9.9,0-19.7,0-29.5c-0.2-6.6-2.4-14-8.3-17.7c-6.2-3.7-13.8-2.9-20.5-1.3c-7,1.7-14.3,3.5-20,8.2C97.6,46.4,96,53,95.9,59
		c0,11.3,0,22.6,0,33.9c-1.7,0.3-3.3,0.7-4.9,1c0-11.3-0.1-22.6,0-33.9c0.1-7.6,2-15.8,7.9-21.1C105.7,33,114.7,31,123.2,29.1z"/>
	<path class="st1" d="M158.4,40.9c6.6-1.3,13.6-2.8,20.2-0.5c4.3,1.6,7.1,5.7,8.1,10c2,8.3,1.2,16.9,1.3,25.3
		c-1.7,0.2-3.3,0.5-4.9,0.8c-0.5-9.3,1.6-19.3-2.9-27.9c-4.5-6.8-13.7-4.6-20.4-3.3C159.3,43.8,158.8,42.3,158.4,40.9z"/>
	<path class="st1" d="M128.7,56.9c2-7.1,9.5-9.9,15.8-11.9c0.4,1.5,0.8,3,1.2,4.5c-3.4,1.1-7,2.2-9.6,4.6c-3.3,3.4-3.8,8.4-4.1,12.9
		c-0.1,6.4,0.1,12.8-0.1,19.3c-1.6,0.3-3.3,0.6-4.9,0.9C127.2,77,126.1,66.7,128.7,56.9z"/>
	<path class="st1" d="M210,77c2.8-0.4,5.7-1.6,8.4-0.4c10.8,3.9,32.6,11.5,32.6,11.5V258c0,0-21.8,8.3-32.6,12.5
		c-3,1.2-6.2-0.2-9.2-0.7c-54.4-11-163.1-33.1-163.1-33.1V108.1C46.1,108.1,155.4,87.4,210,77 M124.1,132.3
		c-0.2,12.2,0,24.5-0.1,36.7c16.3,0,32.7,0,49,0c0-14.5,0-28.9,0-43.4C156.7,127.7,140.4,130.3,124.1,132.3 M84,138.1
		c0,10.3,0,20.6,0,30.9c12.7,0,25.4,0,38,0c0-12.1,0-24.2,0-36.3C109.3,134.4,96.6,136.3,84,138.1 M83.9,171c0,10.3,0,20.6,0,31
		c12.7,1.8,25.3,3.7,38,5.4c0-12.1,0-24.2,0-36.4C109.3,171,96.6,171,83.9,171 M124,171c0,12.2-0.1,24.5,0.1,36.7
		c16.3,2,32.6,4.6,48.9,6.7c0-14.5,0-28.9,0-43.4C156.7,171,140.3,171,124,171z"/>
</g>
</svg>
